<?xml version="1.0" encoding="UTF-8"?>
  <svg xmlns="http://www.w3.org/2000/svg" version="1.1" width="48" height="48" viewBox="0 0 653 523">

    <path d="M0 0 C215.49 0 430.98 0 653 0 C653 172.59 653 345.18 653 523 C437.51 523 222.02 523 0 523 C0 350.41 0 177.82 0 0 Z " fill="#0F2D67" transform="translate(0,0)"/>

    <path d="M0 0 C0 0.99 0 1.98 0 3 C-1.14275391 3.41958984 -1.14275391 3.41958984 -2.30859375 3.84765625 C-14.99373708 8.77284923 -25.55038022 16.72764213 -31.875 29.0625 C-34.38036814 35.00644388 -35.04534371 41.03271729 -35.640625 47.3984375 C-36 51 -36 51 -36.51452446 53.25261593 C-37.12356051 56.6992488 -37.13811749 60.0726874 -37.12698364 63.55970764 C-37.12932363 64.68894288 -37.12932363 64.68894288 -37.13171089 65.84099096 C-37.13569369 68.35893912 -37.13254179 70.8768268 -37.12939453 73.39477539 C-37.13074976 75.20180802 -37.13253039 77.00884037 -37.13470459 78.81587219 C-37.13926405 83.72065383 -37.13749554 88.62541443 -37.1343255 93.53019643 C-37.13179463 98.66128042 -37.13414144 103.7923626 -37.13571167 108.92344666 C-37.13753107 117.53921838 -37.13513289 126.15498153 -37.13037109 134.77075195 C-37.12492719 144.73586083 -37.12669299 154.70094926 -37.1321975 164.66605765 C-37.13673309 173.2190182 -37.13737703 181.77197258 -37.13475883 190.32493395 C-37.13319875 195.43457814 -37.13299501 200.5442127 -37.13629532 205.65385628 C-37.13918055 210.45630414 -37.13718628 215.25872558 -37.13140106 220.06117058 C-37.13007705 221.82524446 -37.13046151 223.58932055 -37.13266373 225.35339355 C-37.13538923 227.75805122 -37.13197688 230.16262378 -37.12698364 232.567276 C-37.13032973 233.61858478 -37.13032973 233.61858478 -37.13374341 234.69113213 C-37.14107742 239.43805463 -37.14107742 239.43805463 -36 244 C-34.06669397 245.09166275 -34.06669397 245.09166275 -32 246 C-31.34 246.99 -30.68 247.98 -30 249 C-26.66772638 250.02672001 -26.66772638 250.02672001 -22.875 250.6875 C-21.59367187 250.93886719 -20.31234375 251.19023437 -18.9921875 251.44921875 C-18.00476563 251.63097656 -17.01734375 251.81273437 -16 252 C-15.67 253.32 -15.34 254.64 -15 256 C-50.31 256 -85.62 256 -122 256 C-122 254.68 -122 253.36 -122 252 C-121.20335937 251.91363281 -120.40671875 251.82726562 -119.5859375 251.73828125 C-112.84618256 250.84456679 -108.67227244 250.05110534 -104 245 C-103.67 244.34 -103.34 243.68 -103 243 C-102.34 243 -101.68 243 -101 243 C-99.96438693 238.72445911 -99.82963761 234.555423 -99.79467773 230.18041992 C-99.77962865 229.00492191 -99.77962865 229.00492191 -99.76427555 227.80567646 C-99.73300958 225.28063683 -99.70816872 222.75558143 -99.68359375 220.23046875 C-99.66517931 218.66686505 -99.64634205 217.10326628 -99.6270752 215.53967285 C-99.55876191 209.75567346 -99.49862317 203.97157985 -99.4375 198.1875 C-99.293125 185.255625 -99.14875 172.32375 -99 159 C-125.4 159 -151.8 159 -179 159 C-178.95359375 165.21585938 -178.9071875 171.43171875 -178.859375 177.8359375 C-178.83890004 181.80991288 -178.81964174 185.78382181 -178.8046875 189.7578125 C-178.78091741 196.04441085 -178.75301716 202.33077283 -178.69824219 208.6171875 C-178.65428999 213.69415474 -178.63076043 218.77086797 -178.62049103 223.84801102 C-178.61318714 225.77018855 -178.5989291 227.69235462 -178.57707977 229.61442184 C-178.40217648 245.66119273 -180.09936656 260.94950226 -186.625 275.8125 C-186.95983398 276.59310791 -187.29466797 277.37371582 -187.63964844 278.17797852 C-191.8237977 287.46072534 -197.81560542 294.81560542 -205 302 C-199.39 302.99 -193.78 303.98 -188 305 C-189 309 -189 309 -190.73046875 310.45703125 C-206.1298543 318.95239975 -224.76306087 324.45484154 -242.375 324.1875 C-243.75026855 324.17348145 -243.75026855 324.17348145 -245.15332031 324.15917969 C-247.76957655 324.12308701 -250.38436651 324.06678437 -253 324 C-254.22460938 323.97035156 -255.44921875 323.94070313 -256.7109375 323.91015625 C-262.40734431 323.60996 -266.84261355 322.59164949 -271.94140625 320.01953125 C-274.21415436 318.83080962 -274.21415436 318.83080962 -277.6875 317.8125 C-312.33490153 305.13155104 -336.96491615 266.76541005 -357.375 238.26611328 C-360.07318366 234.50341184 -362.78736469 230.75228865 -365.5 227 C-366.58341059 225.5000558 -367.66674392 224.00005579 -368.75 222.5 C-369.554375 221.38625 -369.554375 221.38625 -370.375 220.25 C-376.33333333 212 -382.29166667 203.75 -388.25 195.5 C-388.7872168 194.75645264 -389.32443359 194.01290527 -389.87792969 193.24682617 C-390.95261678 191.75821309 -392.02619914 190.26880178 -393.09863281 188.77856445 C-395.93034755 184.84682419 -398.78429003 180.93390582 -401.671875 177.04296875 C-402.27064453 176.23021484 -402.86941406 175.41746094 -403.48632812 174.58007812 C-404.63426367 173.02280122 -405.78888837 171.47042581 -406.95117188 169.92382812 C-412.10636354 162.90221251 -412.10636354 162.90221251 -412 159 C-410.734375 156.6328125 -410.734375 156.6328125 -408.75 154.125 C-408.00878906 153.16335938 -407.26757812 152.20171875 -406.50390625 151.2109375 C-405.89506592 150.43508301 -405.89506592 150.43508301 -405.27392578 149.64355469 C-403.0133969 146.72713452 -400.85937285 143.73265386 -398.6875 140.75 C-397.7440408 139.46313736 -396.80002404 138.17668332 -395.85546875 136.890625 C-393.06921415 133.09455498 -390.28445481 129.29739029 -387.5 125.5 C-386.58334039 124.24999482 -385.66667372 122.99999483 -384.75 121.75 C-384.29625 121.13125 -383.8425 120.5125 -383.375 119.875 C-375.8125 109.5625 -375.8125 109.5625 -368.25 99.25 C-367.79584717 98.63068604 -367.34169434 98.01137207 -366.8737793 97.37329102 C-365.96123814 96.1289462 -365.04864089 94.88464251 -364.13598633 93.64038086 C-361.78072715 90.42919938 -359.42657998 87.21721138 -357.07421875 84.00390625 C-354.7786929 80.86849751 -352.47941878 77.73587047 -350.17773438 74.60498047 C-349.13062408 73.17801051 -348.08839826 71.7474592 -347.046875 70.31640625 C-343.22517606 65.11258803 -343.22517606 65.11258803 -341 64 C-340.91868537 62.56344146 -340.86066441 61.1255517 -340.8125 59.6875 C-340.77769531 58.88699219 -340.74289062 58.08648437 -340.70703125 57.26171875 C-340.82511407 54.95384156 -340.82511407 54.95384156 -342.25 53.25 C-344.32002575 51.77141018 -345.66830019 51.51899179 -348.1875 51.3125 C-349.445625 51.209375 -350.70375 51.10625 -352 51 C-352 50.01 -352 49.02 -352 48 C-328.24 48 -304.48 48 -280 48 C-280 48.99 -280 49.98 -280 51 C-280.82242188 51.02578125 -281.64484375 51.0515625 -282.4921875 51.078125 C-297.26586169 51.82875048 -306.62646987 56.97474111 -316.5625 67.8125 C-320.03891312 71.80260991 -323.3700548 75.89338616 -326.6484375 80.046875 C-333.87341314 89.12010022 -341.30477633 98.03480634 -348.8125 106.875 C-349.69153836 107.91264851 -350.57044751 108.95040651 -351.44921875 109.98828125 C-352.74001642 111.51233179 -354.03093627 113.03628778 -355.32666016 114.55615234 C-356.5995215 116.05255436 -357.86245322 117.55738518 -359.125 119.0625 C-359.84945312 119.91972656 -360.57390625 120.77695313 -361.3203125 121.66015625 C-362.9903263 123.98652432 -363.6763494 125.19513719 -364 128 C-363.07673396 129.97586398 -363.07673396 129.97586398 -361.54296875 131.8203125 C-361.00736328 132.52027344 -360.47175781 133.22023437 -359.91992188 133.94140625 C-359.06237305 135.02228516 -359.06237305 135.02228516 -358.1875 136.125 C-357.62740234 136.85332031 -357.06730469 137.58164063 -356.49023438 138.33203125 C-354.41664311 141.0125877 -352.39824535 143.60175465 -350 146 C-349.896875 146.598125 -349.79375 147.19625 -349.6875 147.8125 C-348.67140036 151.04554431 -346.42222538 152.69593196 -344 155 C-342 158 -342 158 -342 161 C-341.01 161.33 -340.02 161.66 -339 162 C-337 165 -337 165 -337 168 C-336.01 168.33 -335.02 168.66 -334 169 C-332.71655273 170.4519043 -332.71655273 170.4519043 -331.43359375 172.32421875 C-330.95277344 173.01676758 -330.47195313 173.70931641 -329.9765625 174.42285156 C-329.46867187 175.17018555 -328.96078125 175.91751953 -328.4375 176.6875 C-327.36365333 178.23853892 -326.28942851 179.7893161 -325.21484375 181.33984375 C-324.67714355 182.12085449 -324.13944336 182.90186523 -323.58544922 183.70654297 C-321.25536968 187.07715694 -318.88198059 190.41595325 -316.5 193.75 C-315.90529907 194.58857544 -315.90529907 194.58857544 -315.29858398 195.4440918 C-313.51572495 197.94558134 -311.69433731 200.37530062 -309.75390625 202.7578125 C-307.99374867 205.00799168 -307.63041966 206.29820144 -307 209 C-306.02149805 210.02104551 -305.02019573 211.0206121 -304 212 C-303.71125 212.61875 -303.4225 213.2375 -303.125 213.875 C-302.03950656 216.18721912 -302.03950656 216.18721912 -299.73046875 218.21484375 C-296.84387326 221.15925374 -294.51577937 224.30534343 -292.1875 227.6875 C-288.00586297 233.64759698 -283.62208245 239.3719349 -279 245 C-278.28070313 245.89332031 -277.56140625 246.78664063 -276.8203125 247.70703125 C-269.64218431 256.58654969 -262.07988422 264.99939214 -254.0625 273.125 C-253.4943457 273.70620605 -252.92619141 274.28741211 -252.34082031 274.88623047 C-250.9327019 276.29732318 -249.47046821 277.65400471 -248 279 C-247.34 279 -246.68 279 -246 279 C-245.34431041 277.17016859 -244.70097787 275.3359079 -244.0625 273.5 C-243.70285156 272.4790625 -243.34320313 271.458125 -242.97265625 270.40625 C-241.12155467 263.9236774 -240.85191848 257.46526461 -240.86628723 250.75804138 C-240.8628889 249.57300832 -240.8628889 249.57300832 -240.85942191 248.36403519 C-240.85313232 245.73803625 -240.85390799 243.11208959 -240.85473633 240.48608398 C-240.85174179 238.59480727 -240.84833859 236.70353117 -240.84455872 234.81225586 C-240.83574711 229.69051882 -240.83338187 224.56879851 -240.83274293 219.44705462 C-240.83203112 216.24550946 -240.82989438 213.04396851 -240.82724571 209.84242439 C-240.81800357 198.66911678 -240.81390964 187.49582108 -240.81469727 176.32250977 C-240.81529862 165.9126102 -240.80473263 155.50276237 -240.7889536 145.0928759 C-240.77587817 136.14745383 -240.77051333 127.20204868 -240.77115268 118.25661713 C-240.77140755 112.91719336 -240.76856194 107.57781564 -240.75797462 102.23840141 C-240.74829297 97.21920041 -240.74821495 92.2000895 -240.75549126 87.18088531 C-240.75653682 85.34066448 -240.75417587 83.50043803 -240.7481308 81.66022682 C-240.74040433 79.14503711 -240.74505989 76.63015808 -240.75276184 74.11497498 C-240.7450465 73.02731572 -240.7450465 73.02731572 -240.73717529 71.91768354 C-240.77293438 66.62007022 -241.13177796 61.2119044 -244.65625 57.0390625 C-245.2646875 56.57242188 -245.873125 56.10578125 -246.5 55.625 C-247.1084375 55.14289063 -247.716875 54.66078125 -248.34375 54.1640625 C-251.30651898 52.08173902 -253.54853024 51.75846523 -257.125 51.4375 C-258.03507813 51.35371094 -258.94515625 51.26992187 -259.8828125 51.18359375 C-260.58148438 51.12300781 -261.28015625 51.06242187 -262 51 C-262 50.01 -262 49.02 -262 48 C-227.02 48 -192.04 48 -156 48 C-156 48.99 -156 49.98 -156 51 C-157.41152344 51.20302734 -157.41152344 51.20302734 -158.8515625 51.41015625 C-168.33034668 52.97953578 -168.33034668 52.97953578 -175.08203125 59.28125 C-177.25231908 63.34476763 -177.17037212 67.20722196 -177.20532227 71.68432617 C-177.21522186 72.4650499 -177.22512146 73.24577362 -177.23532104 74.05015564 C-177.26691177 76.63106248 -177.29168388 79.21198773 -177.31640625 81.79296875 C-177.33697787 83.58230569 -177.3579744 85.3716378 -177.37937927 87.16096497 C-177.43457842 91.87092166 -177.48399723 96.58092206 -177.53222656 101.29095459 C-177.59128854 106.94197115 -177.65750467 112.59290782 -177.72252655 118.24385834 C-177.82050895 126.82919011 -177.90938355 135.41457308 -178 144 C-151.93 144 -125.86 144 -99 144 C-99.11829657 120.03798171 -99.11829657 120.03798171 -99.27026367 96.07617188 C-99.28381348 91.38769531 -99.28381348 91.38769531 -99.28633118 89.1763916 C-99.29086666 87.66790085 -99.30126474 86.1594193 -99.31672668 84.65100098 C-99.46155925 69.7453887 -97.80532506 55.90164047 -92 42 C-91.71511719 41.24589844 -91.43023437 40.49179688 -91.13671875 39.71484375 C-85.01390449 24.42129449 -72.11227261 11.6221714 -57.3125 4.625 C-53.53322966 3.05142481 -50.07034095 2.346412 -46 2 C-46 1.34 -46 0.68 -46 0 C-31.81083725 -5.32093603 -14.30528718 -4.31470062 0 0 Z " fill="#9AB7EF" transform="translate(591,103)"/>

    <path d="M0 0 C34.98 0 69.96 0 106 0 C106 0.99 106 1.98 106 3 C105.05898437 3.14695313 104.11796875 3.29390625 103.1484375 3.4453125 C95.03090878 4.67053873 95.03090878 4.67053873 88.1875 8.8125 C84.66833537 13.94042561 84.87487235 19.02827177 84.87301636 25.11482239 C84.87145637 25.80780275 84.86989638 26.5007831 84.86828911 27.21476287 C84.86431754 29.5244635 84.86745385 31.83409777 84.87060547 34.14379883 C84.86924969 35.80493712 84.86746876 37.4660751 84.86529541 39.12721252 C84.86074109 43.63145761 84.86250271 48.13567976 84.8656745 52.63992524 C84.86820969 57.36026715 84.86585721 62.08060711 84.86428833 66.8009491 C84.86246949 74.7306656 84.86486491 82.6603728 84.86962891 90.59008789 C84.87506535 99.74452965 84.87331221 108.89894911 84.8678025 118.05339032 C84.86325653 125.92280321 84.86262826 133.7922094 84.86524117 141.66162318 C84.8667965 146.35725722 84.86701824 151.05288081 84.86370468 155.74851418 C84.86080461 160.16686858 84.8628408 164.58519442 84.86859894 169.00354576 C84.86991534 170.62039009 84.86955154 172.23723685 84.86733627 173.8540802 C84.64717453 185.49508502 84.64717453 185.49508502 86 197 C87.93652221 198.16294139 87.93652221 198.16294139 90 199 C90.43957031 199.51175781 90.87914062 200.02351562 91.33203125 200.55078125 C93.86731448 202.75356832 96.40416213 202.76489216 99.6875 203.1875 C100.86699219 203.34605469 102.04648438 203.50460937 103.26171875 203.66796875 C104.16535156 203.77753906 105.06898438 203.88710938 106 204 C106.33 205.32 106.66 206.64 107 208 C71.69 208 36.38 208 0 208 C0 206.68 0 205.36 0 204 C0.79664062 203.91363281 1.59328125 203.82726562 2.4140625 203.73828125 C9.17378877 202.84191852 13.36294224 202.11265343 18 197 C21.91274907 191.60310474 22.12468709 186.55800311 22.14044189 180.02993774 C22.14341302 179.34048423 22.14638414 178.65103072 22.1494453 177.94068468 C22.15809712 175.63703909 22.15963754 173.33344568 22.16113281 171.02978516 C22.16576339 169.37540069 22.17078838 167.7210173 22.17617798 166.06663513 C22.18927888 161.57693537 22.19574216 157.08725054 22.20018864 152.59753466 C22.20312246 149.79149583 22.2072278 146.98546106 22.21169281 144.17942429 C22.22536025 135.39671429 22.23503119 126.6140136 22.2388947 117.8312937 C22.24337691 107.69850431 22.26093552 97.56584971 22.2898953 87.4331013 C22.31151556 79.59601046 22.32159913 71.75895755 22.32293582 63.92183721 C22.32398339 59.2429704 22.32988128 54.56423043 22.34775543 49.88539505 C22.36424258 45.48423956 22.36638852 41.0833062 22.35761642 36.68213081 C22.35684646 35.06927838 22.36118349 33.45641397 22.37107468 31.84359169 C22.3838122 29.63680781 22.37790833 27.43080864 22.36749268 25.22402954 C22.36969252 23.37405334 22.36969252 23.37405334 22.3719368 21.48670387 C21.74171501 15.57871962 19.42026518 10.36154194 15.09375 6.22265625 C10.58109431 3.58746738 5.11928418 3.44053187 0 3 C0 2.01 0 1.02 0 0 Z " fill="#9BB8EF" transform="translate(85,151)"/>

    <path d="M0 0 C-0.66 0.66 -1.32 1.32 -2 2 C26.38 2 54.76 2 84 2 C82.68 1.34 81.36 0.68 80 0 C82.7219246 -1.3609623 84.1831957 -0.70366248 87.125 -0.0625 C88.49011719 0.22947266 88.49011719 0.22947266 89.8828125 0.52734375 C90.58148437 0.68332031 91.28015625 0.83929688 92 1 C92.495 2.98 92.495 2.98 93 5 C57.69 5 22.38 5 -14 5 C-14 3.68 -14 2.36 -14 1 C-12.04310963 0.63794536 -10.08442332 0.28558579 -8.125 -0.0625 C-7.03445313 -0.25972656 -5.94390625 -0.45695312 -4.8203125 -0.66015625 C-2 -1 -2 -1 0 0 Z " fill="#7795CD" transform="translate(483,354)"/>

    <path d="M0 0 C-0.66 0.66 -1.32 1.32 -2 2 C25.72 2 53.44 2 82 2 C81.505 1.01 81.505 1.01 81 0 C84.63 0.33 88.26 0.66 92 1 C92.495 2.98 92.495 2.98 93 5 C57.69 5 22.38 5 -14 5 C-14 3.68 -14 2.36 -14 1 C-12.04310963 0.63794536 -10.08442332 0.28558579 -8.125 -0.0625 C-7.03445312 -0.25972656 -5.94390625 -0.45695312 -4.8203125 -0.66015625 C-2 -1 -2 -1 0 0 Z " fill="#7997CF" transform="translate(99,354)"/>

    <path d="M0 0 C0.66 0.33 1.32 0.66 2 1 C-2.8587514 6.58981354 -7.69768747 11.86698174 -13.46875 16.52734375 C-15.26790487 18.02942829 -15.26790487 18.02942829 -16 21 C-16.66 21 -17.32 21 -18 21 C-16.55480014 16.4108566 -13.93531721 13.36647036 -10.6875 9.9375 C-9.9769043 9.1630957 -9.9769043 9.1630957 -9.25195312 8.37304688 C-6.36933639 5.27748718 -3.37849072 2.56617601 0 0 Z " fill="#7593CB" transform="translate(523,114)"/>

    <path d="M0 0 C0.66 0.33 1.32 0.66 2 1 C0.75796305 2.46512126 -0.49397056 3.92185645 -1.75 5.375 C-2.44609375 6.18710938 -3.1421875 6.99921875 -3.859375 7.8359375 C-5.85949643 9.85795807 -7.39531129 10.93231229 -10 12 C-8.52278578 8.54798361 -6.56205999 6.35038064 -3.875 3.75 C-3.15054688 3.04359375 -2.42609375 2.3371875 -1.6796875 1.609375 C-1.12539063 1.07828125 -0.57109375 0.5471875 0 0 Z " fill="#31508B" transform="translate(573,114)"/>

    <path d="M0 0 C0.66 0.33 1.32 0.66 2 1 C1.07038578 2.15224028 0.1309875 3.29659176 -0.8125 4.4375 C-1.59560547 5.39462891 -1.59560547 5.39462891 -2.39453125 6.37109375 C-4 8 -4 8 -7 9 C-5.44499019 5.18315774 -2.96404505 2.80804268 0 0 Z " fill="#375791" transform="translate(282,162)"/>

    <path d="M0 0 C1.98 0 3.96 0 6 0 C6 0.99 6 1.98 6 3 C4.02 3 2.04 3 0 3 C0 2.01 0 1.02 0 0 Z " fill="#7F9DD5" transform="translate(185,355)"/>
</svg>