<?xml version="1.0" encoding="UTF-8"?>
  <svg xmlns="http://www.w3.org/2000/svg" version="1.1" width="80" height="80" viewBox="0 0 612 407">

    
    <path d="M0 0 C201.96 0 403.92 0 612 0 C612 134.31 612 268.62 612 407 C410.04 407 208.08 407 0 407 C0 272.69 0 138.38 0 0 Z " fill="#FEFEFE" transform="translate(0,0)"/>

    
    <path d="M0 0 C10.17038151 9.46782226 13.66239099 28.8621415 14.33203125 42.21875 C14.34621094 42.87617188 14.36039062 43.53359375 14.375 44.2109375 C15.303125 44.1284375 16.23125 44.0459375 17.1875 43.9609375 C27.96146191 44.04764947 37.8469037 50.59890048 45.17578125 58.0390625 C47.45629867 60.89131528 48.36895613 63.17265968 48.9375 66.7734375 C48.24487609 71.00613916 47.22958313 72.99953148 44.375 76.2109375 C38.02206367 80.37549284 32.09228215 81.34949591 24.5625 81.2734375 C23.40105469 81.26441406 22.23960937 81.25539063 21.04296875 81.24609375 C20.16253906 81.23449219 19.28210938 81.22289062 18.375 81.2109375 C18.34921875 81.85417969 18.3234375 82.49742187 18.296875 83.16015625 C17.80840184 90.94242181 15.89055629 97.85147281 13.375 105.2109375 C13.045 105.2109375 12.715 105.2109375 12.375 105.2109375 C12.375 102.2409375 12.375 99.2709375 12.375 96.2109375 C8.31675156 97.98928312 8.31675156 97.98928312 4.97241211 100.78491211 C1.77441009 103.63979975 -2.98015328 102.76520143 -7.0625 102.7734375 C-8.01705078 102.81017578 -8.97160156 102.84691406 -9.95507812 102.88476562 C-12.64820085 102.90172721 -15.00386778 102.83479995 -17.625 102.2109375 C-21.625 97.83501973 -21.625 97.83501973 -21.625 94.2109375 C-25.77784014 94.14248441 -25.77784014 94.14248441 -29.625 95.2109375 C-31.22963981 97.45621555 -32.37568718 99.73200823 -33.625 102.2109375 C-36.87452748 102.35640533 -40.12321713 102.4450543 -43.375 102.5234375 C-44.29539062 102.56533203 -45.21578125 102.60722656 -46.1640625 102.65039062 C-53.03398911 102.77484582 -53.03398911 102.77484582 -56.265625 99.69140625 C-56.71421875 98.87285156 -57.1628125 98.05429688 -57.625 97.2109375 C-57.95582999 108.7042165 -57.68525293 119.04465747 -54.625 130.2109375 C-58.51426312 126.8263215 -60.48144186 123.08269489 -62.6875 118.5234375 C-63.03748047 117.80881348 -63.38746094 117.09418945 -63.74804688 116.35791016 C-70.21931525 102.93703577 -70.21931525 102.93703577 -69.625 95.2109375 C-70.8625 95.1490625 -72.1 95.0871875 -73.375 95.0234375 C-84.30081166 93.78460531 -94.0463899 88.21504155 -101.5625 80.3359375 C-104.26424664 76.24238198 -104.625 74.11813606 -104.625 69.2109375 C-103.34458527 65.04958962 -101.79223187 63.06614447 -98.125 60.8984375 C-94.11403154 58.96457771 -91.34842553 58.08531059 -86.95703125 58.11328125 C-86.06435547 58.11650391 -85.17167969 58.11972656 -84.25195312 58.12304688 C-82.85879883 58.13561523 -82.85879883 58.13561523 -81.4375 58.1484375 C-80.49712891 58.15294922 -79.55675781 58.15746094 -78.58789062 58.16210938 C-76.26686288 58.17389124 -73.94596356 58.19034192 -71.625 58.2109375 C-71.58536133 57.66381104 -71.54572266 57.11668457 -71.50488281 56.55297852 C-68.26526371 13.69961922 -68.26526371 13.69961922 -54.125 0.3359375 C-50.58456435 -2.18259968 -46.87594515 -3.1590117 -42.625 -3.7890625 C-41.59761719 -3.96308594 -40.57023437 -4.13710937 -39.51171875 -4.31640625 C-27.25148672 -5.80734904 -10.61755451 -7.236369 0 0 Z " fill="#060606" transform="translate(331.625,85.7890625)"/>

    
    <path d="M0 0 C2.76729637 2.40349232 4.8249689 4.46042003 6.8125 7.57421875 C6.9375 10.19921875 6.9375 10.19921875 5.8125 12.57421875 C0.87407913 17.65373735 -4.48077451 17.6976226 -11.30053711 17.86645508 C-30.3894713 18.03286423 -48.85818279 13.54944318 -67.1875 8.57421875 C-68.31929688 8.27257812 -69.45109375 7.9709375 -70.6171875 7.66015625 C-75.52928626 6.28254215 -75.52928626 6.28254215 -77.1875 5.57421875 C-77.5175 4.91421875 -77.8475 4.25421875 -78.1875 3.57421875 C-54.51580492 -6.24806136 -23.13661583 -17.39628122 0 0 Z " fill="#F7F7F7" transform="translate(367.1875,143.42578125)"/>

    
    <path d="M0 0 C-15.82896131 12.18980693 -39.74403496 14.35589777 -59 13 C-67.12437021 11.84660949 -74.05332601 8.63884616 -80 3 C-80.53753906 2.49082031 -81.07507813 1.98164063 -81.62890625 1.45703125 C-83.8605728 -0.90841367 -84.98580958 -2.38981195 -85.0625 -5.6875 C-83.77917467 -8.48061983 -82.65676325 -9.48184957 -80 -11 C-55.07208246 -18.65252239 -23.95350025 -6.99587827 0 0 Z " fill="#FAFAFA" transform="translate(318,162)"/>

    
    <path d="M0 0 C1.33203125 1.22265625 1.33203125 1.22265625 2.8125 3.0625 C6.9551976 8.02842597 11.38029538 12.6960936 15.84887695 17.36743164 C19.91993945 21.67719946 23.53964781 26.18697187 27 31 C25.74445313 30.72285156 24.48890625 30.44570312 23.1953125 30.16015625 C21.50527118 29.79398063 19.8151634 29.42811169 18.125 29.0625 C17.30257812 28.88009766 16.48015625 28.69769531 15.6328125 28.50976562 C13.94601106 28.14736688 12.25449498 27.80634169 10.55932617 27.48535156 C8.88368923 27.16758315 7.21558576 26.80630972 5.55981445 26.39746094 C-1.32158083 25.06651132 -5.22079278 27.25723768 -10.97070312 31 C-11.99099609 31.70125 -13.01128906 32.4025 -14.0625 33.125 C-16.11465438 34.4836321 -18.16802113 35.8404349 -20.22265625 37.1953125 C-21.19477051 37.84532227 -22.16688477 38.49533203 -23.16845703 39.16503906 C-27.00416149 41.65073959 -30.95862234 43.86880226 -35 46 C-36.05544437 41.36386289 -36.16224991 37.63025367 -35 33 C-31.410299 27.82691078 -26.44577047 23.74981244 -21.75976562 19.59765625 C-19.73059765 17.75541496 -17.93797876 15.79487249 -16.1875 13.6875 C-13.48722398 10.51029212 -10.65679309 7.49020179 -7.75 4.5 C-6.91984375 3.6440625 -6.0896875 2.788125 -5.234375 1.90625 C-3 0 -3 0 0 0 Z " fill="#060606" transform="translate(358,219)"/>

    
    <path d="M0 0 C7.40340391 3.17527481 12.76902528 10.58533034 17.828125 16.65625 C19.66465068 18.63811225 21.52151559 20.3769623 23.546875 22.15625 C33.55657458 31.13607758 33.55657458 31.13607758 34.90234375 36.79296875 C34.8779914 39.98312703 34.65276165 42.88124989 34 46 C22.54831525 40.13261995 11.698579 33.132386 1 26 C-8.42721545 25.39048176 -18.84808514 28.97981346 -28 31 C-23.97305487 25.24566678 -19.48322883 20.36620791 -14.4609375 15.45703125 C-11.67185844 12.6723793 -9.10042101 9.75401672 -6.5390625 6.76171875 C-4.46575944 4.38847084 -2.26166261 2.19312738 0 0 Z " fill="#040404" transform="translate(268,219)"/>

    
    <path d="M0 0 C2.97 0 5.94 0 9 0 C10.32 4.29 11.64 8.58 13 13 C14.32 8.71 15.64 4.42 17 0 C19.97 0 22.94 0 26 0 C26 9.24 26 18.48 26 28 C23.36 28 20.72 28 18 28 C17.505 21.565 17.505 21.565 17 15 C15.68 19.29 14.36 23.58 13 28 C11.35 28 9.7 28 8 28 C6.66666667 24 5.33333333 20 4 16 C3.67 19.96 3.34 23.92 3 28 C2.01 28 1.02 28 0 28 C0 18.76 0 9.52 0 0 Z " fill="#232021" transform="translate(229,298)"/>

    
    <path d="M0 0 C3.99996286 1.33332095 4.83782337 3.4957827 7 7 C7.78375 6.34 8.5675 5.68 9.375 5 C12 3 12 3 14 3 C15.15271525 4.24853289 16.24895002 5.54968938 17.3125 6.875 C19.96037737 10.0103527 21.88449127 12.00230091 26 13 C26 15.64 26 18.28 26 21 C13.46 21 0.92 21 -12 21 C-12 18.36 -12 15.72 -12 13 C-11.25363281 12.78601563 -10.50726563 12.57203125 -9.73828125 12.3515625 C-6.23321937 10.62153195 -5.16586844 8.71107227 -3.1875 5.375 C-2.58292969 4.37210937 -1.97835938 3.36921875 -1.35546875 2.3359375 C-0.90816406 1.56507813 -0.46085937 0.79421875 0 0 Z " fill="#080808" transform="translate(357,266)"/>

    
    <path d="M0 0 C1.134375 0.020625 2.26875 0.04125 3.4375 0.0625 C4.43112773 3.03703412 5.40462186 6.01780815 6.375 9 C6.79168945 10.24620117 6.79168945 10.24620117 7.21679688 11.51757812 C9.00987528 17.06964017 9.97367082 22.24408588 10.4375 28.0625 C7.7975 28.0625 5.1575 28.0625 2.4375 28.0625 C2.1075 26.0825 1.7775 24.1025 1.4375 22.0625 C-2.5225 22.5575 -2.5225 22.5575 -6.5625 23.0625 C-7.5525 25.5375 -7.5525 25.5375 -8.5625 28.0625 C-9.5525 28.0625 -10.5425 28.0625 -11.5625 28.0625 C-10.90222095 22.03745363 -9.33748832 16.47295722 -7.5625 10.6875 C-7.28921875 9.77355469 -7.0159375 8.85960937 -6.734375 7.91796875 C-4.35744998 0.07644649 -4.35744998 0.07644649 0 0 Z " fill="#1D191A" transform="translate(280.5625,297.9375)"/>

    
    <path d="M0 0 C2.64 0.33 5.28 0.66 8 1 C9.17322847 4.93557529 10.33745371 8.87375727 11.5 12.8125 C11.83386719 13.93205078 12.16773438 15.05160156 12.51171875 16.20507812 C12.82753906 17.27822266 13.14335937 18.35136719 13.46875 19.45703125 C13.90864258 20.9416687 13.90864258 20.9416687 14.35742188 22.45629883 C15 25 15 25 15 28 C12.36 28 9.72 28 7 28 C6.34 26.35 5.68 24.7 5 23 C2.36 22.67 -0.28 22.34 -3 22 C-3.33 23.98 -3.66 25.96 -4 28 C-5.32 28 -6.64 28 -8 28 C-5.78952972 18.51115195 -2.97604874 9.26927435 0 0 Z " fill="#262324" transform="translate(368,298)"/>

    
    <path d="M0 0 C6.27 0 12.54 0 19 0 C19 1.32 19 2.64 19 4 C15.7 4 12.4 4 9 4 C9 6.64 9 9.28 9 12 C11.64 12 14.28 12 17 12 C17 12.99 17 13.98 17 15 C14.36 15 11.72 15 9 15 C9 19.29 9 23.58 9 28 C6.03 28 3.06 28 0 28 C0 18.76 0 9.52 0 0 Z " fill="#333031" transform="translate(305,298)"/>

    
    <path d="M0 0 C0.495 4.455 0.495 4.455 1 9 C-12.33880305 10.09848966 -25.62329823 10.10890351 -39 10 C-36.83348965 7.83348965 -35.328044 7.19482811 -32.5 6.08984375 C-31.613125 5.73986328 -30.72625 5.38988281 -29.8125 5.02929688 C-28.4203125 4.48885742 -28.4203125 4.48885742 -27 3.9375 C-25.1664206 3.21807475 -23.33307566 2.49805155 -21.5 1.77734375 C-20.6853125 1.46015381 -19.870625 1.14296387 -19.03125 0.81616211 C-12.6411238 -1.75140903 -6.81717488 -1.39839485 0 0 Z " fill="#F8F8F8" transform="translate(342,166)"/>

    
    <path d="M0 0 C2.64 0 5.28 0 8 0 C8 9.24 8 18.48 8 28 C5.36 28 2.72 28 0 28 C0 18.76 0 9.52 0 0 Z " fill="#1E1B1C" transform="translate(338,298)"/>

    
    <path d="M0 0 C2.31 0 4.62 0 7 0 C7.99 3.63 8.98 7.26 10 11 C9.01 11 8.02 11 7 11 C7 11.66 7 12.32 7 13 C6.34 13 5.68 13 5 13 C4.34 11.68 3.68 10.36 3 9 C3.33 12.3 3.66 15.6 4 19 C-1.43649152 19.36243277 -1.43649152 19.36243277 -3.7734375 17.859375 C-5 16 -5 16 -4.70703125 13.22265625 C-4.41183594 12.17980469 -4.11664063 11.13695312 -3.8125 10.0625 C-3.53019531 9.02222656 -3.24789063 7.98195313 -2.95703125 6.91015625 C-2.14606821 4.4441666 -1.24227109 2.27111235 0 0 Z " fill="#262324" transform="translate(277,298)"/>

    
    <path d="M0 0 C5.61 0 11.22 0 17 0 C17 0.66 17 1.32 17 2 C14.03 2 11.06 2 8 2 C8 4.97 8 7.94 8 11 C10.64 11 13.28 11 16 11 C16 11.99 16 12.98 16 14 C14.72125 14.144375 13.4425 14.28875 12.125 14.4375 C9.74307106 14.70642746 8.15547309 14.92226346 6 16 C6.2784375 15.0409375 6.2784375 15.0409375 6.5625 14.0625 C6.706875 13.381875 6.85125 12.70125 7 12 C6.67 11.67 6.34 11.34 6 11 C5.63239269 8.67182036 5.29758419 6.3381615 5 4 C4.01 4.495 4.01 4.495 3 5 C2.52402634 7.70599842 2.15906371 10.33595404 1.875 13.0625 C1.78863281 13.82111328 1.70226562 14.57972656 1.61328125 15.36132812 C1.40060483 17.23996986 1.19924541 19.11988636 1 21 C0.67 21 0.34 21 0 21 C0 14.07 0 7.14 0 0 Z " fill="#161415" transform="translate(306,299)"/>

    
    <path d="M0 0 C2.64 0.33 5.28 0.66 8 1 C8 1.99 8 2.98 8 4 C5.525 5.485 5.525 5.485 3 7 C3.33 10.96 3.66 14.92 4 19 C2.02 19 0.04 19 -2 19 C-2 18.34 -2 17.68 -2 17 C-2.99 17.33 -3.98 17.66 -5 18 C-1.92482916 5.33029613 -1.92482916 5.33029613 0 0 Z " fill="#1C1A1A" transform="translate(368,298)"/>

    
    <path d="M0 0 C0.66 0 1.32 0 2 0 C3.57300962 5.73303505 4.24327778 10.15659442 3 16 C0.03 16 -2.94 16 -6 16 C-6.33 17.98 -6.66 19.96 -7 22 C-8.32 22 -9.64 22 -11 22 C-10.57781184 20.3501725 -10.13675575 18.70516335 -9.6875 17.0625 C-9.44386719 16.14597656 -9.20023437 15.22945313 -8.94921875 14.28515625 C-8.63597656 13.53105469 -8.32273437 12.77695312 -8 12 C-7.01 11.67 -6.02 11.34 -5 11 C-5 11.66 -5 12.32 -5 13 C-3.02 13 -1.04 13 1 13 C0.505 11.4221875 0.505 11.4221875 0 9.8125 C-0.8406332 6.60758594 -1.28794711 4.2634006 -1 1 C-0.67 0.67 -0.34 0.34 0 0 Z " fill="#100E0F" transform="translate(371,304)"/>

    
    <path d="M0 0 C3.3 0 6.6 0 10 0 C9.69024532 1.77131561 9.37709575 3.54203778 9.0625 5.3125 C8.88847656 6.29863281 8.71445312 7.28476563 8.53515625 8.30078125 C8 11 8 11 7 14 C6.01 14 5.02 14 4 14 C3.32968281 12.0429132 2.66385317 10.08428887 2 8.125 C1.62875 7.03445312 1.2575 5.94390625 0.875 4.8203125 C0 2 0 2 0 0 Z " fill="#181818" transform="translate(304,223)"/>

    
    <path d="M0 0 C0.33 0 0.66 0 1 0 C2.06309567 5.17317421 2.11693938 10.12369336 2.0625 15.375 C2.05798828 16.20644531 2.05347656 17.03789062 2.04882812 17.89453125 C2.03713164 19.92971897 2.01919935 21.96486923 2 24 C1.01 24 0.02 24 -1 24 C-1.02893932 20.37501666 -1.04677792 16.75006287 -1.0625 13.125 C-1.07087891 12.09246094 -1.07925781 11.05992187 -1.08789062 9.99609375 C-1.09111328 9.00996094 -1.09433594 8.02382813 -1.09765625 7.0078125 C-1.10289307 6.09660645 -1.10812988 5.18540039 -1.11352539 4.24658203 C-1 2 -1 2 0 0 Z " fill="#191718" transform="translate(230,302)"/>

    
    <path d="M0 0 C2.97 0 5.94 0 9 0 C9 5.94 9 11.88 9 18 C8.34 17.67 7.68 17.34 7 17 C7 12.38 7 7.76 7 3 C4.03 2.505 4.03 2.505 1 2 C1.33 2.99 1.66 3.98 2 5 C1.01 6.485 1.01 6.485 0 8 C-0.66 8 -1.32 8 -2 8 C-1.34 5.36 -0.68 2.72 0 0 Z " fill="#272526" transform="translate(246,298)"/>

    
    <path d="M0 0 C2.1446143 2.1446143 2.44564603 3.01739998 3.125 5.875 C3.29257812 6.55304688 3.46015625 7.23109375 3.6328125 7.9296875 C4 10 4 10 4 14 C1.36 14 -1.28 14 -4 14 C-2.68 12.68 -1.36 11.36 0 10 C-0.66 9.67 -1.32 9.34 -2 9 C-1.01 9 -0.02 9 1 9 C0.67 6.03 0.34 3.06 0 0 Z " fill="#272526" transform="translate(287,312)"/>

    
    <path d="M0 0 C0.99 0.33 1.98 0.66 3 1 C3 1.66 3 2.32 3 3 C4.65 3 6.3 3 8 3 C8 3.33 8 3.66 8 4 C6.35 4 4.7 4 3 4 C2.34 6.31 1.68 8.62 1 11 C0.01 11 -0.98 11 -2 11 C-1 3.57142857 -1 3.57142857 0 0 Z " fill="#232222" transform="translate(271,315)"/>

    
    <path d="M0 0 C4.05819183 0.65503282 7.53971282 1.94559121 11.3125 3.5625 C12.38113281 4.01753906 13.44976562 4.47257813 14.55078125 4.94140625 C15.76314453 5.46541016 15.76314453 5.46541016 17 6 C13.09366863 7.30211046 10.80461827 6.47812346 6.8125 5.5625 C5.54019531 5.27503906 4.26789063 4.98757812 2.95703125 4.69140625 C1.49330078 4.34916016 1.49330078 4.34916016 0 4 C0 2.68 0 1.36 0 0 Z " fill="#191919" transform="translate(314,215)"/>

    
    <path d="M0 0 C2.29633824 3.44450737 2.54016485 5.93812283 3 10 C1.02 10 -0.96 10 -3 10 C-2.01 6.7 -1.02 3.4 0 0 Z " fill="#E4E3E3" transform="translate(369,307)"/>

    
    <path d="M0 0 C2 1 2 1 2.6328125 2.84765625 C2.79523438 3.57855469 2.95765625 4.30945313 3.125 5.0625 C3.29257812 5.79597656 3.46015625 6.52945312 3.6328125 7.28515625 C3.75398438 7.85105469 3.87515625 8.41695313 4 9 C2.02 9 0.04 9 -2 9 C-1.34 6.03 -0.68 3.06 0 0 Z " fill="#E6E6E6" transform="translate(277,308)"/>

    
    <path d="M0 0 C0 1.32 0 2.64 0 4 C-1.58086048 4.36504603 -3.16483907 4.71660506 -4.75 5.0625 C-5.63171875 5.25972656 -6.5134375 5.45695313 -7.421875 5.66015625 C-9.98679028 5.99825872 -11.57091639 5.81158635 -14 5 C-12.04350603 4.16235732 -10.08474444 3.33000941 -8.125 2.5 C-6.48917969 1.80390625 -6.48917969 1.80390625 -4.8203125 1.09375 C-2 0 -2 0 0 0 Z " fill="#1C1C1C" transform="translate(304,215)"/>

    
    <path d="M0 0 C-0.33 2.97 -0.66 5.94 -1 9 C-2.32 9 -3.64 9 -5 9 C-4.71848913 7.68528432 -4.42446661 6.37324233 -4.125 5.0625 C-3.96257812 4.33160156 -3.80015625 3.60070312 -3.6328125 2.84765625 C-2.93449973 0.80875539 -2.29775298 0 0 0 Z " fill="#201F1F" transform="translate(365,317)"/>

    
    <path d="M0 0 C2.97 0 5.94 0 9 0 C9 0.99 9 1.98 9 3 C7.72125 3.144375 6.4425 3.28875 5.125 3.4375 C2.74307106 3.70642746 1.15547309 3.92226346 -1 5 C-0.67 3.35 -0.34 1.7 0 0 Z " fill="#111011" transform="translate(313,310)"/>

    
    <path d="M0 0 C0.66 0 1.32 0 2 0 C2.33 1.98 2.66 3.96 3 6 C1.68 6 0.36 6 -1 6 C-1.042721 4.33388095 -1.04063832 2.66617115 -1 1 C-0.67 0.67 -0.34 0.34 0 0 Z " fill="#070606" transform="translate(371,304)"/>

    
    <path d="M0 0 C2.64 0 5.28 0 8 0 C7.67 0.66 7.34 1.32 7 2 C5 2.66666667 3 3.33333333 1 4 C0.67 4.66 0.34 5.32 0 6 C0 4.02 0 2.04 0 0 Z " fill="#2B292A" transform="translate(338,298)"/>
</svg>