<?xml version="1.0" encoding="UTF-8"?>
  <svg xmlns="http://www.w3.org/2000/svg" version="1.1" width="30" height="30" viewBox="0 0 326 171">

    <path d="M0 0 C0.061875 0.78375 0.12375 1.5675 0.1875 2.375 C0.5896875 3.674375 0.5896875 3.674375 1 5 C3.47636012 6.37466625 3.47636012 6.37466625 6 7 C6 8.32 6 9.64 6 11 C6.804375 11.2475 7.60875 11.495 8.4375 11.75 C11 13 11 13 11.8125 15.125 C11.874375 15.74375 11.93625 16.3625 12 17 C12.61875 17.0825 13.2375 17.165 13.875 17.25 C16.66938743 18.23625439 16.716952 19.43390399 18 22 C20.05000871 22.80528889 20.05000871 22.80528889 22 23 C22.061875 23.598125 22.12375 24.19625 22.1875 24.8125 C23.31977322 27.8609279 25.24532024 28.41605914 28 30 C28.33 30.99 28.66 31.98 29 33 C29.825 33.495 30.65 33.99 31.5 34.5 C34 36 34 36 35 39 C35.639375 39.309375 36.27875 39.61875 36.9375 39.9375 C39.50051718 41.25784218 39.7407337 42.4814674 41 45 C42.32520503 45.68268138 43.65812182 46.3507041 45 47 C45.33 47.99 45.66 48.98 46 50 C46.825 50.309375 47.65 50.61875 48.5 50.9375 C49.325 51.288125 50.15 51.63875 51 52 C51.33333333 53.33333333 51.66666667 54.66666667 52 56 C54.49034386 57.29660434 54.49034386 57.29660434 57 58 C57 59.32 57 60.64 57 62 C57.78375 62.2475 58.5675 62.495 59.375 62.75 C62.43941457 64.20924503 62.61725761 65.05014956 64 68 C65.32520503 68.68268138 66.65812182 69.3507041 68 70 C68.33 70.99 68.66 71.98 69 73 C69.9590625 73.4640625 69.9590625 73.4640625 70.9375 73.9375 C73 75 73 75 74 77.0625 C74.33 77.701875 74.66 78.34125 75 79 C75.66 79.144375 76.32 79.28875 77 79.4375 C77.99 79.7159375 77.99 79.7159375 79 80 C79.68132451 81.66072849 80.34742127 83.327767 81 85 C82.31647119 85.69937532 83.65022151 86.36729133 85 87 C85.69937532 88.31647119 86.36729133 89.65022151 87 91 C87.99 91.66 88.98 92.32 90 93 C90.33 93.99 90.66 94.98 91 96 C92.65 96 94.3 96 96 96 C96.3403125 95.0409375 96.3403125 95.0409375 96.6875 94.0625 C98 92 98 92 100.625 91.25 C101.40875 91.1675 102.1925 91.085 103 91 C103.0825 90.21625 103.165 89.4325 103.25 88.625 C103.4975 87.75875 103.745 86.8925 104 86 C105.31647119 85.30062468 106.65022151 84.63270867 108 84 C108.80528889 81.94999129 108.80528889 81.94999129 109 80 C111.475 79.505 111.475 79.505 114 79 C114.33 77.35 114.66 75.7 115 74 C116.65 74 118.3 74 120 74 C120 72.35 120 70.7 120 69 C120.804375 68.7525 121.60875 68.505 122.4375 68.25 C123.283125 67.8375 124.12875 67.425 125 67 C125.165 66.34 125.33 65.68 125.5 65 C125.665 64.34 125.83 63.68 126 63 C127.65204456 62.29788106 129.31923769 61.63028587 131 61 C131.33 60.01 131.66 59.02 132 58 C134.98594424 56.50702788 137.70853624 56.88244772 141 57 C141.66 57.33 142.32 57.66 143 58 C143 59.32 143 60.64 143 62 C144.65 62.33 146.3 62.66 148 63 C148.33 64.65 148.66 66.3 149 68 C150.65 68.33 152.3 68.66 154 69 C154.33 70.65 154.66 72.3 155 74 C156.65 74.33 158.3 74.66 160 75 C160 76.32 160 77.64 160 79 C161.65 79.33 163.3 79.66 165 80 C165.33 81.65 165.66 83.3 166 85 C167.65 85.33 169.3 85.66 171 86 C171.33 87.65 171.66 89.3 172 91 C173.65 91.33 175.3 91.66 177 92 C177.33 93.65 177.66 95.3 178 97 C179.32 97 180.64 97 182 97 C182.2475 97.804375 182.495 98.60875 182.75 99.4375 C183.72238859 102.171081 183.72238859 102.171081 186.125 102.8125 C186.74375 102.874375 187.3625 102.93625 188 103 C188.0928125 104.175625 188.0928125 104.175625 188.1875 105.375 C188.5896875 106.674375 188.5896875 106.674375 189 108 C190.65204456 108.70211894 192.31923769 109.36971413 194 110 C194.8125 112.125 194.8125 112.125 195 114 C196.32 114.33 197.64 114.66 199 115 C199.33 116.32 199.66 117.64 200 119 C201.32 119 202.64 119 204 119 C204 125.27 204 131.54 204 138 C96.42 138 -11.16 138 -122 138 C-122 132.06 -122 126.12 -122 120 C-119.36 119.67 -116.72 119.34 -114 119 C-113.67 117.35 -113.34 115.7 -113 114 C-111.02 113.505 -111.02 113.505 -109 113 C-109 111.68 -109 110.36 -109 109 C-108.21625 108.7525 -107.4325 108.505 -106.625 108.25 C-103.86649168 107.27177913 -103.86649168 107.27177913 -103 104.9375 C-102.67 104.298125 -102.34 103.65875 -102 103 C-99.375 102.25 -99.375 102.25 -97 102 C-96.67 100.35 -96.34 98.7 -96 97 C-94.02 96.505 -94.02 96.505 -92 96 C-91.67 94.35 -91.34 92.7 -91 91 C-89.02 90.505 -89.02 90.505 -87 90 C-86.505 88.02 -86.505 88.02 -86 86 C-83.03 85.505 -83.03 85.505 -80 85 C-80 83.35 -80 81.7 -80 80 C-77.525 79.505 -77.525 79.505 -75 79 C-74.505 77.02 -74.505 77.02 -74 75 C-71.525 74.505 -71.525 74.505 -69 74 C-68.67 72.35 -68.34 70.7 -68 69 C-65.525 68.505 -65.525 68.505 -63 68 C-62.67 66.35 -62.34 64.7 -62 63 C-59.525 62.505 -59.525 62.505 -57 62 C-56.67 60.35 -56.34 58.7 -56 57 C-54.68 56.67 -53.36 56.34 -52 56 C-51.67 54.68 -51.34 53.36 -51 52 C-49.35 51.67 -47.7 51.34 -46 51 C-45.67 49.35 -45.34 47.7 -45 46 C-43.35 45.67 -41.7 45.34 -40 45 C-39.67 43.35 -39.34 41.7 -39 40 C-38.401875 39.938125 -37.80375 39.87625 -37.1875 39.8125 C-34.73256694 39.16333507 -34.73256694 39.16333507 -33.5 36.4375 C-33.005 35.633125 -32.51 34.82875 -32 34 C-30.68 34 -29.36 34 -28 34 C-28 32.35 -28 30.7 -28 29 C-26.02 28.67 -24.04 28.34 -22 28 C-22 26.35 -22 24.7 -22 23 C-20.35 23 -18.7 23 -17 23 C-16.67 21.35 -16.34 19.7 -16 18 C-14.35 17.67 -12.7 17.34 -11 17 C-10.67 15.35 -10.34 13.7 -10 12 C-7.525 11.505 -7.525 11.505 -5 11 C-5 10.34 -5 9.68 -5 9 C-6.98 8.67 -8.96 8.34 -11 8 C-11.1875 4.625 -11.1875 4.625 -11 1 C-6.8204355 -1.78637633 -4.85331323 -0.79562512 0 0 Z " fill="#FEFEFE" transform="translate(122,33)"/>

    <path d="M0 0 C0.061875 0.78375 0.12375 1.5675 0.1875 2.375 C0.5896875 3.674375 0.5896875 3.674375 1 5 C3.47636012 6.37466625 3.47636012 6.37466625 6 7 C6 8.32 6 9.64 6 11 C6.804375 11.2475 7.60875 11.495 8.4375 11.75 C11 13 11 13 11.8125 15.125 C11.874375 15.74375 11.93625 16.3625 12 17 C12.61875 17.0825 13.2375 17.165 13.875 17.25 C16.66938743 18.23625439 16.716952 19.43390399 18 22 C20.05000871 22.80528889 20.05000871 22.80528889 22 23 C22.061875 23.598125 22.12375 24.19625 22.1875 24.8125 C23.31977322 27.8609279 25.24532024 28.41605914 28 30 C28.33 30.99 28.66 31.98 29 33 C29.825 33.495 30.65 33.99 31.5 34.5 C34 36 34 36 35 39 C35.639375 39.309375 36.27875 39.61875 36.9375 39.9375 C39.50051718 41.25784218 39.7407337 42.4814674 41 45 C42.32520503 45.68268138 43.65812182 46.3507041 45 47 C45.33 47.99 45.66 48.98 46 50 C46.825 50.309375 47.65 50.61875 48.5 50.9375 C49.325 51.288125 50.15 51.63875 51 52 C51.33333333 53.33333333 51.66666667 54.66666667 52 56 C54.49034386 57.29660434 54.49034386 57.29660434 57 58 C57 59.32 57 60.64 57 62 C57.78375 62.2475 58.5675 62.495 59.375 62.75 C62.43941457 64.20924503 62.61725761 65.05014956 64 68 C65.32520503 68.68268138 66.65812182 69.3507041 68 70 C68.33 70.99 68.66 71.98 69 73 C69.9590625 73.4640625 69.9590625 73.4640625 70.9375 73.9375 C73 75 73 75 74 77.0625 C74.33 77.701875 74.66 78.34125 75 79 C75.66 79.144375 76.32 79.28875 77 79.4375 C77.99 79.7159375 77.99 79.7159375 79 80 C79.68132451 81.66072849 80.34742127 83.327767 81 85 C82.31647119 85.69937532 83.65022151 86.36729133 85 87 C85.69937532 88.31647119 86.36729133 89.65022151 87 91 C87.99 91.66 88.98 92.32 90 93 C90.33 93.99 90.66 94.98 91 96 C92.65 96 94.3 96 96 96 C96.3403125 95.0409375 96.3403125 95.0409375 96.6875 94.0625 C98 92 98 92 100.625 91.25 C101.40875 91.1675 102.1925 91.085 103 91 C103.0825 90.21625 103.165 89.4325 103.25 88.625 C103.4975 87.75875 103.745 86.8925 104 86 C105.31647119 85.30062468 106.65022151 84.63270867 108 84 C108.80528889 81.94999129 108.80528889 81.94999129 109 80 C111.475 79.505 111.475 79.505 114 79 C114.33 77.35 114.66 75.7 115 74 C116.65 74 118.3 74 120 74 C120 72.35 120 70.7 120 69 C120.804375 68.7525 121.60875 68.505 122.4375 68.25 C123.283125 67.8375 124.12875 67.425 125 67 C125.165 66.34 125.33 65.68 125.5 65 C125.665 64.34 125.83 63.68 126 63 C127.65204456 62.29788106 129.31923769 61.63028587 131 61 C131.33 60.01 131.66 59.02 132 58 C134.98594424 56.50702788 137.70853624 56.88244772 141 57 C141.66 57.33 142.32 57.66 143 58 C143 59.32 143 60.64 143 62 C144.65 62.33 146.3 62.66 148 63 C148.33 64.65 148.66 66.3 149 68 C150.65 68.33 152.3 68.66 154 69 C154.33 70.65 154.66 72.3 155 74 C156.65 74.33 158.3 74.66 160 75 C160 76.32 160 77.64 160 79 C161.65 79.33 163.3 79.66 165 80 C165.33 81.65 165.66 83.3 166 85 C167.65 85.33 169.3 85.66 171 86 C171.33 87.65 171.66 89.3 172 91 C173.65 91.33 175.3 91.66 177 92 C177.33 93.65 177.66 95.3 178 97 C179.32 97 180.64 97 182 97 C182.2475 97.804375 182.495 98.60875 182.75 99.4375 C183.72238859 102.171081 183.72238859 102.171081 186.125 102.8125 C186.74375 102.874375 187.3625 102.93625 188 103 C188.0928125 104.175625 188.0928125 104.175625 188.1875 105.375 C188.5896875 106.674375 188.5896875 106.674375 189 108 C190.65204456 108.70211894 192.31923769 109.36971413 194 110 C194.8125 112.125 194.8125 112.125 195 114 C196.32 114.33 197.64 114.66 199 115 C199.33 116.32 199.66 117.64 200 119 C201.32 119.33 202.64 119.66 204 120 C201.36 120 198.72 120 196 120 C196 118.68 196 117.36 196 116 C194.35 115.67 192.7 115.34 191 115 C190.67 113.68 190.34 112.36 190 111 C188.68 110.67 187.36 110.34 186 110 C186 108.35 186 106.7 186 105 C185.030625 105.020625 184.06125 105.04125 183.0625 105.0625 C180 105 180 105 179 104 C178.95936168 102.33382885 178.957279 100.66611905 179 99 C177.35 99 175.7 99 174 99 C173.67 97.35 173.34 95.7 173 94 C171.35 93.67 169.7 93.34 168 93 C168 91.35 168 89.7 168 88 C166.02 87.67 164.04 87.34 162 87 C162 85.35 162 83.7 162 82 C160.35 82 158.7 82 157 82 C156.7525 81.195625 156.505 80.39125 156.25 79.5625 C155.27761141 76.828919 155.27761141 76.828919 152.875 76.1875 C152.25625 76.125625 151.6375 76.06375 151 76 C150.9071875 74.824375 150.9071875 74.824375 150.8125 73.625 C150.4103125 72.325625 150.4103125 72.325625 150 71 C147.52363988 69.62533375 147.52363988 69.62533375 145 69 C145 67.35 145 65.7 145 64 C143.35 64 141.7 64 140 64 C140 62.35 140 60.7 140 59 C138.35 59 136.7 59 135 59 C135 60.32 135 61.64 135 63 C131.535 63.495 131.535 63.495 128 64 C128 65.65 128 67.3 128 69 C125.03 69.495 125.03 69.495 122 70 C122 71.65 122 73.3 122 75 C119.525 75.495 119.525 75.495 117 76 C116.67 77.65 116.34 79.3 116 81 C114.35 81 112.7 81 111 81 C111 82.65 111 84.3 111 86 C110.195625 86.2475 109.39125 86.495 108.5625 86.75 C105.828919 87.72238859 105.828919 87.72238859 105.1875 90.125 C105.125625 90.74375 105.06375 91.3625 105 92 C102.525 92.495 102.525 92.495 100 93 C99.67 94.65 99.34 96.3 99 98 C95.37 98 91.74 98 88 98 C87.67 96.68 87.34 95.36 87 94 C86.175 93.67 85.35 93.34 84.5 93 C83.675 92.67 82.85 92.34 82 92 C81.1875 89.875 81.1875 89.875 81 88 C79.35 87.67 77.7 87.34 76 87 C76 85.35 76 83.7 76 82 C74.35 82 72.7 82 71 82 C71 80.02 71 78.04 71 76 C69.02 76 67.04 76 65 76 C64.9175 75.21625 64.835 74.4325 64.75 73.625 C64.27193661 70.85250896 64.27193661 70.85250896 61.9375 69.6875 C61.298125 69.460625 60.65875 69.23375 60 69 C60 67.68 60 66.36 60 65 C57.03 64.505 57.03 64.505 54 64 C54 62.35 54 60.7 54 59 C52.35 58.67 50.7 58.34 49 58 C49 56.35 49 54.7 49 53 C46.69 53 44.38 53 42 53 C42 51.35 42 49.7 42 48 C41.195625 48.020625 40.39125 48.04125 39.5625 48.0625 C37 48 37 48 36 47 C35.95936168 45.33382885 35.957279 43.66611905 36 42 C34.35 42 32.7 42 31 42 C30.67 40.35 30.34 38.7 30 37 C28.35 36.67 26.7 36.34 25 36 C24.67 34.35 24.34 32.7 24 31 C23.01 30.67 22.02 30.34 21 30 C21 28.02 21 26.04 21 24 C18.69 24 16.38 24 14 24 C14 22.35 14 20.7 14 19 C12.02 18.67 10.04 18.34 8 18 C7.896875 17.38125 7.79375 16.7625 7.6875 16.125 C7.12474627 13.63473516 7.12474627 13.63473516 4 12 C3.3125 9.875 3.3125 9.875 3 8 C1.68 7.67 0.36 7.34 -1 7 C-1 5.02 -1 3.04 -1 1 C-3.64 1.33 -6.28 1.66 -9 2 C-9.33 3.65 -9.66 5.3 -10 7 C-7.69 7.33 -5.38 7.66 -3 8 C-3 9.32 -3 10.64 -3 12 C-4.98 12.33 -6.96 12.66 -9 13 C-9.33 14.65 -9.66 16.3 -10 18 C-10.928125 18.0928125 -10.928125 18.0928125 -11.875 18.1875 C-14.27761141 18.828919 -14.27761141 18.828919 -15.25 21.5625 C-15.62125 22.7690625 -15.62125 22.7690625 -16 24 C-17.65 24 -19.3 24 -21 24 C-21 25.65 -21 27.3 -21 29 C-22.65 29.33 -24.3 29.66 -26 30 C-26 31.65 -26 33.3 -26 35 C-27.98 35.33 -29.96 35.66 -32 36 C-32.33 37.65 -32.66 39.3 -33 41 C-33.928125 41.0928125 -33.928125 41.0928125 -34.875 41.1875 C-37.27761141 41.828919 -37.27761141 41.828919 -38.25 44.5625 C-38.62125 45.7690625 -38.62125 45.7690625 -39 47 C-40.32 47 -41.64 47 -43 47 C-43.33 48.65 -43.66 50.3 -44 52 C-46.475 52.495 -46.475 52.495 -49 53 C-49.33 54.65 -49.66 56.3 -50 58 C-51.65 58 -53.3 58 -55 58 C-55 59.65 -55 61.3 -55 63 C-55.639375 63.2475 -56.27875 63.495 -56.9375 63.75 C-59.18741541 64.81562433 -59.18741541 64.81562433 -59.75 67.125 C-59.8325 67.74375 -59.915 68.3625 -60 69 C-62.97 69.495 -62.97 69.495 -66 70 C-66 71.65 -66 73.3 -66 75 C-68.97 75.495 -68.97 75.495 -72 76 C-72.33 77.65 -72.66 79.3 -73 81 C-73.61875 81.061875 -74.2375 81.12375 -74.875 81.1875 C-75.57625 81.455625 -76.2775 81.72375 -77 82 C-77.70211894 83.65204456 -78.36971413 85.31923769 -79 87 C-80.485 87.495 -80.485 87.495 -82 88 C-82.73323796 90.01508358 -82.73323796 90.01508358 -83 92 C-85.97 92.495 -85.97 92.495 -89 93 C-89 94.65 -89 96.3 -89 98 C-90.175625 98.0928125 -90.175625 98.0928125 -91.375 98.1875 C-92.24125 98.455625 -93.1075 98.72375 -94 99 C-94.70211894 100.65204456 -95.36971413 102.31923769 -96 104 C-98.125 104.8125 -98.125 104.8125 -100 105 C-100.33 106.32 -100.66 107.64 -101 109 C-102.98 109 -104.96 109 -107 109 C-106.54625 108.566875 -106.0925 108.13375 -105.625 107.6875 C-103.79975666 105.89201658 -103.79975666 105.89201658 -102 103 C-99.375 102.3125 -99.375 102.3125 -97 102 C-96.67 100.35 -96.34 98.7 -96 97 C-94.02 96.505 -94.02 96.505 -92 96 C-91.67 94.35 -91.34 92.7 -91 91 C-89.02 90.505 -89.02 90.505 -87 90 C-86.67 88.68 -86.34 87.36 -86 86 C-83.03 85.505 -83.03 85.505 -80 85 C-80 83.35 -80 81.7 -80 80 C-77.525 79.505 -77.525 79.505 -75 79 C-74.505 77.02 -74.505 77.02 -74 75 C-71.525 74.505 -71.525 74.505 -69 74 C-68.67 72.35 -68.34 70.7 -68 69 C-65.525 68.505 -65.525 68.505 -63 68 C-62.67 66.35 -62.34 64.7 -62 63 C-59.525 62.505 -59.525 62.505 -57 62 C-56.67 60.35 -56.34 58.7 -56 57 C-54.02 56.505 -54.02 56.505 -52 56 C-51.67 54.68 -51.34 53.36 -51 52 C-48.525 51.505 -48.525 51.505 -46 51 C-45.67 49.35 -45.34 47.7 -45 46 C-42.525 45.505 -42.525 45.505 -40 45 C-39.67 43.35 -39.34 41.7 -39 40 C-38.401875 39.938125 -37.80375 39.87625 -37.1875 39.8125 C-34.73256694 39.16333507 -34.73256694 39.16333507 -33.5 36.4375 C-33.005 35.633125 -32.51 34.82875 -32 34 C-30.68 34 -29.36 34 -28 34 C-28 32.35 -28 30.7 -28 29 C-26.02 28.67 -24.04 28.34 -22 28 C-22 26.35 -22 24.7 -22 23 C-20.35 23 -18.7 23 -17 23 C-16.67 21.35 -16.34 19.7 -16 18 C-14.35 17.67 -12.7 17.34 -11 17 C-10.67 15.35 -10.34 13.7 -10 12 C-7.525 11.505 -7.525 11.505 -5 11 C-5 10.34 -5 9.68 -5 9 C-6.98 8.67 -8.96 8.34 -11 8 C-11.1875 4.625 -11.1875 4.625 -11 1 C-6.8204355 -1.78637633 -4.85331323 -0.79562512 0 0 Z " fill="#6D6D6D" transform="translate(122,33)"/>

    <path d="M0 0 C0.061875 0.78375 0.12375 1.5675 0.1875 2.375 C0.5896875 3.674375 0.5896875 3.674375 1 5 C3.47636012 6.37466625 3.47636012 6.37466625 6 7 C6 8.32 6 9.64 6 11 C6.804375 11.2475 7.60875 11.495 8.4375 11.75 C11 13 11 13 11.8125 15.125 C11.874375 15.74375 11.93625 16.3625 12 17 C12.61875 17.0825 13.2375 17.165 13.875 17.25 C16.66938743 18.23625439 16.716952 19.43390399 18 22 C20.05000871 22.80528889 20.05000871 22.80528889 22 23 C22.061875 23.598125 22.12375 24.19625 22.1875 24.8125 C23.31977322 27.8609279 25.24532024 28.41605914 28 30 C28.33 30.99 28.66 31.98 29 33 C29.66 33.66 30.32 34.32 31 35 C29.35 35 27.7 35 26 35 C26 33.35 26 31.7 26 30 C24.35 30 22.7 30 21 30 C21 28.02 21 26.04 21 24 C18.69 24 16.38 24 14 24 C14 22.35 14 20.7 14 19 C12.02 18.67 10.04 18.34 8 18 C7.896875 17.38125 7.79375 16.7625 7.6875 16.125 C7.12474627 13.63473516 7.12474627 13.63473516 4 12 C3.3125 9.875 3.3125 9.875 3 8 C1.68 7.67 0.36 7.34 -1 7 C-1 5.02 -1 3.04 -1 1 C-3.64 1.33 -6.28 1.66 -9 2 C-9.33 3.65 -9.66 5.3 -10 7 C-7.69 7.33 -5.38 7.66 -3 8 C-3 9.32 -3 10.64 -3 12 C-4.98 12.33 -6.96 12.66 -9 13 C-9.33 14.65 -9.66 16.3 -10 18 C-10.928125 18.0928125 -10.928125 18.0928125 -11.875 18.1875 C-14.27761141 18.828919 -14.27761141 18.828919 -15.25 21.5625 C-15.62125 22.7690625 -15.62125 22.7690625 -16 24 C-17.65 24 -19.3 24 -21 24 C-21 25.65 -21 27.3 -21 29 C-22.65 29.33 -24.3 29.66 -26 30 C-26 31.65 -26 33.3 -26 35 C-27.98 35.33 -29.96 35.66 -32 36 C-32.33 37.65 -32.66 39.3 -33 41 C-33.928125 41.0928125 -33.928125 41.0928125 -34.875 41.1875 C-37.27761141 41.828919 -37.27761141 41.828919 -38.25 44.5625 C-38.62125 45.7690625 -38.62125 45.7690625 -39 47 C-40.32 47 -41.64 47 -43 47 C-43.33 48.65 -43.66 50.3 -44 52 C-46.475 52.495 -46.475 52.495 -49 53 C-49.33 54.65 -49.66 56.3 -50 58 C-51.65 58 -53.3 58 -55 58 C-55 59.65 -55 61.3 -55 63 C-55.639375 63.2475 -56.27875 63.495 -56.9375 63.75 C-59.18741541 64.81562433 -59.18741541 64.81562433 -59.75 67.125 C-59.8325 67.74375 -59.915 68.3625 -60 69 C-62.97 69.495 -62.97 69.495 -66 70 C-66 71.65 -66 73.3 -66 75 C-68.97 75.495 -68.97 75.495 -72 76 C-72.33 77.65 -72.66 79.3 -73 81 C-73.61875 81.061875 -74.2375 81.12375 -74.875 81.1875 C-75.57625 81.455625 -76.2775 81.72375 -77 82 C-77.70211894 83.65204456 -78.36971413 85.31923769 -79 87 C-80.485 87.495 -80.485 87.495 -82 88 C-82.73323796 90.01508358 -82.73323796 90.01508358 -83 92 C-85.97 92.495 -85.97 92.495 -89 93 C-89 94.65 -89 96.3 -89 98 C-90.175625 98.0928125 -90.175625 98.0928125 -91.375 98.1875 C-92.24125 98.455625 -93.1075 98.72375 -94 99 C-94.70211894 100.65204456 -95.36971413 102.31923769 -96 104 C-98.125 104.8125 -98.125 104.8125 -100 105 C-100.33 106.32 -100.66 107.64 -101 109 C-102.98 109 -104.96 109 -107 109 C-106.54625 108.566875 -106.0925 108.13375 -105.625 107.6875 C-103.79975666 105.89201658 -103.79975666 105.89201658 -102 103 C-99.375 102.3125 -99.375 102.3125 -97 102 C-96.67 100.35 -96.34 98.7 -96 97 C-94.02 96.505 -94.02 96.505 -92 96 C-91.67 94.35 -91.34 92.7 -91 91 C-89.02 90.505 -89.02 90.505 -87 90 C-86.67 88.68 -86.34 87.36 -86 86 C-83.03 85.505 -83.03 85.505 -80 85 C-80 83.35 -80 81.7 -80 80 C-77.525 79.505 -77.525 79.505 -75 79 C-74.505 77.02 -74.505 77.02 -74 75 C-71.525 74.505 -71.525 74.505 -69 74 C-68.67 72.35 -68.34 70.7 -68 69 C-65.525 68.505 -65.525 68.505 -63 68 C-62.67 66.35 -62.34 64.7 -62 63 C-59.525 62.505 -59.525 62.505 -57 62 C-56.67 60.35 -56.34 58.7 -56 57 C-54.02 56.505 -54.02 56.505 -52 56 C-51.67 54.68 -51.34 53.36 -51 52 C-48.525 51.505 -48.525 51.505 -46 51 C-45.67 49.35 -45.34 47.7 -45 46 C-42.525 45.505 -42.525 45.505 -40 45 C-39.67 43.35 -39.34 41.7 -39 40 C-38.401875 39.938125 -37.80375 39.87625 -37.1875 39.8125 C-34.73256694 39.16333507 -34.73256694 39.16333507 -33.5 36.4375 C-33.005 35.633125 -32.51 34.82875 -32 34 C-30.68 34 -29.36 34 -28 34 C-28 32.35 -28 30.7 -28 29 C-26.02 28.67 -24.04 28.34 -22 28 C-22 26.35 -22 24.7 -22 23 C-20.35 23 -18.7 23 -17 23 C-16.67 21.35 -16.34 19.7 -16 18 C-14.35 17.67 -12.7 17.34 -11 17 C-10.67 15.35 -10.34 13.7 -10 12 C-7.525 11.505 -7.525 11.505 -5 11 C-5 10.34 -5 9.68 -5 9 C-6.98 8.67 -8.96 8.34 -11 8 C-11.1875 4.625 -11.1875 4.625 -11 1 C-6.8204355 -1.78637633 -4.85331323 -0.79562512 0 0 Z " fill="#595959" transform="translate(122,33)"/>

    <path d="M0 0 C0.66 0 1.32 0 2 0 C2 1.65 2 3.3 2 5 C4.31 5 6.62 5 9 5 C9.2475 5.61875 9.495 6.2375 9.75 6.875 C10.82143729 9.13746494 10.82143729 9.13746494 13 10 C15.52845528 11.26422764 15.76422764 12.52845528 17 15 C18.32520503 15.68268138 19.65812182 16.3507041 21 17 C21.33 17.99 21.66 18.98 22 20 C22.825 20.309375 23.65 20.61875 24.5 20.9375 C25.7375 21.4634375 25.7375 21.4634375 27 22 C27.33333333 23.33333333 27.66666667 24.66666667 28 26 C30.49034386 27.29660434 30.49034386 27.29660434 33 28 C33 29.32 33 30.64 33 32 C33.78375 32.2475 34.5675 32.495 35.375 32.75 C38.43941457 34.20924503 38.61725761 35.05014956 40 38 C41.32520503 38.68268138 42.65812182 39.3507041 44 40 C44.33 40.99 44.66 41.98 45 43 C47.00016466 44.20882096 47.00016466 44.20882096 49 45 C48.67 46.65 48.34 48.3 48 50 C49.65 50.33 51.3 50.66 53 51 C53.495 53.97 53.495 53.97 54 57 C53.34 57 52.68 57 52 57 C52 55.35 52 53.7 52 52 C50.35 52 48.7 52 47 52 C47 50.02 47 48.04 47 46 C45.02 46 43.04 46 41 46 C40.9175 45.21625 40.835 44.4325 40.75 43.625 C40.27193661 40.85250896 40.27193661 40.85250896 37.9375 39.6875 C37.298125 39.460625 36.65875 39.23375 36 39 C36 37.68 36 36.36 36 35 C33.03 34.505 33.03 34.505 30 34 C30 32.35 30 30.7 30 29 C28.35 28.67 26.7 28.34 25 28 C25 26.35 25 24.7 25 23 C22.69 23 20.38 23 18 23 C18 21.35 18 19.7 18 18 C17.195625 18.020625 16.39125 18.04125 15.5625 18.0625 C13 18 13 18 12 17 C11.95936168 15.33382885 11.957279 13.66611905 12 12 C10.35 12 8.7 12 7 12 C6.67 10.35 6.34 8.7 6 7 C4.35 6.67 2.7 6.34 1 6 C0.67 4.02 0.34 2.04 0 0 Z " fill="#999999" transform="translate(146,63)"/>

    <path d="M0 0 C0.33 0 0.66 0 1 0 C1 1.65 1 3.3 1 5 C-0.65 5.33 -2.3 5.66 -4 6 C-4 7.65 -4 9.3 -4 11 C-5.98 11.33 -7.96 11.66 -10 12 C-10 13.65 -10 15.3 -10 17 C-11.65 17.33 -13.3 17.66 -15 18 C-15.495 20.475 -15.495 20.475 -16 23 C-17.65 23 -19.3 23 -21 23 C-21 24.65 -21 26.3 -21 28 C-21.804375 28.2475 -22.60875 28.495 -23.4375 28.75 C-26.171081 29.72238859 -26.171081 29.72238859 -26.8125 32.125 C-26.9053125 33.053125 -26.9053125 33.053125 -27 34 C-29.475 34.495 -29.475 34.495 -32 35 C-32.33 36.65 -32.66 38.3 -33 40 C-36.63 40 -40.26 40 -44 40 C-44.33 38.68 -44.66 37.36 -45 36 C-45.825 35.67 -46.65 35.34 -47.5 35 C-48.325 34.67 -49.15 34.34 -50 34 C-50.3721042 32.67696283 -50.70630173 31.34262065 -51 30 C-52.9837767 28.71563266 -52.9837767 28.71563266 -55 28 C-55 26.35 -55 24.7 -55 23 C-56.65 22.67 -58.3 22.34 -60 22 C-59.505 20.515 -59.505 20.515 -59 19 C-58.34 19.66 -57.68 20.32 -57 21 C-56.34 21.103125 -55.68 21.20625 -55 21.3125 C-54.34 21.539375 -53.68 21.76625 -53 22 C-52.31867549 23.66072849 -51.65257873 25.327767 -51 27 C-49.68352881 27.69937532 -48.34977849 28.36729133 -47 29 C-46.30062468 30.31647119 -45.63270867 31.65022151 -45 33 C-44.01 33.66 -43.02 34.32 -42 35 C-41.67 35.99 -41.34 36.98 -41 38 C-39.35 38 -37.7 38 -36 38 C-35.773125 37.360625 -35.54625 36.72125 -35.3125 36.0625 C-34 34 -34 34 -31.375 33.25 C-30.59125 33.1675 -29.8075 33.085 -29 33 C-28.9175 32.21625 -28.835 31.4325 -28.75 30.625 C-28.5025 29.75875 -28.255 28.8925 -28 28 C-26.68352881 27.30062468 -25.34977849 26.63270867 -24 26 C-23.19471111 23.94999129 -23.19471111 23.94999129 -23 22 C-21.35 21.67 -19.7 21.34 -18 21 C-17.67 19.35 -17.34 17.7 -17 16 C-15.35 16 -13.7 16 -12 16 C-12 14.35 -12 12.7 -12 11 C-11.195625 10.7525 -10.39125 10.505 -9.5625 10.25 C-8.716875 9.8375 -7.87125 9.425 -7 9 C-6.835 8.34 -6.67 7.68 -6.5 7 C-6.335 6.34 -6.17 5.68 -6 5 C-4.34795544 4.29788106 -2.68076231 3.63028587 -1 3 C-0.67 2.01 -0.34 1.02 0 0 Z " fill="#959595" transform="translate(254,91)"/>

    <path d="M0 0 C0.061875 0.78375 0.12375 1.5675 0.1875 2.375 C0.455625 3.24125 0.72375 4.1075 1 5 C3.47636012 6.37466625 3.47636012 6.37466625 6 7 C6 8.32 6 9.64 6 11 C6.804375 11.2475 7.60875 11.495 8.4375 11.75 C11 13 11 13 11.8125 15.125 C11.874375 15.74375 11.93625 16.3625 12 17 C12.61875 17.0825 13.2375 17.165 13.875 17.25 C16.66938743 18.23625439 16.716952 19.43390399 18 22 C20.05000871 22.80528889 20.05000871 22.80528889 22 23 C22.061875 23.598125 22.12375 24.19625 22.1875 24.8125 C23.31977322 27.8609279 25.24532024 28.41605914 28 30 C28.495 31.485 28.495 31.485 29 33 C29.66 33.66 30.32 34.32 31 35 C29.35 35 27.7 35 26 35 C26 33.35 26 31.7 26 30 C24.35 30 22.7 30 21 30 C21 28.02 21 26.04 21 24 C18.69 24 16.38 24 14 24 C14 22.35 14 20.7 14 19 C12.02 18.67 10.04 18.34 8 18 C7.896875 17.38125 7.79375 16.7625 7.6875 16.125 C7.12474627 13.63473516 7.12474627 13.63473516 4 12 C3.3125 9.875 3.3125 9.875 3 8 C1.68 7.67 0.36 7.34 -1 7 C-1 5.02 -1 3.04 -1 1 C-3.64 1.33 -6.28 1.66 -9 2 C-9.33 3.65 -9.66 5.3 -10 7 C-7.69 7.33 -5.38 7.66 -3 8 C-3 9.32 -3 10.64 -3 12 C-4.98 12.33 -6.96 12.66 -9 13 C-9.33 14.65 -9.66 16.3 -10 18 C-11.32 17.67 -12.64 17.34 -14 17 C-13.01 17 -12.02 17 -11 17 C-10.67 15.35 -10.34 13.7 -10 12 C-8.35 11.67 -6.7 11.34 -5 11 C-5 10.34 -5 9.68 -5 9 C-7.97 8.505 -7.97 8.505 -11 8 C-11.1875 4.625 -11.1875 4.625 -11 1 C-6.8204355 -1.78637633 -4.85331323 -0.79562512 0 0 Z " fill="#686868" transform="translate(122,33)"/>

    <path d="M0 0 C3.5625 0.125 3.5625 0.125 5.5625 1.125 C5.5625 2.445 5.5625 3.765 5.5625 5.125 C7.2125 5.455 8.8625 5.785 10.5625 6.125 C10.8925 7.775 11.2225 9.425 11.5625 11.125 C14.0375 11.62 14.0375 11.62 16.5625 12.125 C16.8925 13.775 17.2225 15.425 17.5625 17.125 C19.2125 17.455 20.8625 17.785 22.5625 18.125 C22.5625 19.445 22.5625 20.765 22.5625 22.125 C23.5525 22.455 24.5425 22.785 25.5625 23.125 C26.5625 24.125 26.5625 24.125 26.625 27.1875 C26.604375 28.156875 26.58375 29.12625 26.5625 30.125 C25.9025 30.125 25.2425 30.125 24.5625 30.125 C24.5625 28.475 24.5625 26.825 24.5625 25.125 C22.9125 25.125 21.2625 25.125 19.5625 25.125 C19.315 24.320625 19.0675 23.51625 18.8125 22.6875 C17.84011141 19.953919 17.84011141 19.953919 15.4375 19.3125 C14.509375 19.2196875 14.509375 19.2196875 13.5625 19.125 C13.500625 18.34125 13.43875 17.5575 13.375 16.75 C13.106875 15.88375 12.83875 15.0175 12.5625 14.125 C10.08613988 12.75033375 10.08613988 12.75033375 7.5625 12.125 C7.5625 10.475 7.5625 8.825 7.5625 7.125 C5.9125 7.125 4.2625 7.125 2.5625 7.125 C2.5625 5.475 2.5625 3.825 2.5625 2.125 C0.9125 2.125 -0.7375 2.125 -2.4375 2.125 C-2.4375 3.445 -2.4375 4.765 -2.4375 6.125 C-3.0975 6.125 -3.7575 6.125 -4.4375 6.125 C-4.480221 4.45888095 -4.47813832 2.79117115 -4.4375 1.125 C-3.4375 0.125 -3.4375 0.125 0 0 Z " fill="#5C5C5C" transform="translate(259.4375,89.875)"/>

    <path d="M0 0 C-0.99 0.66 -1.98 1.32 -3 2 C-3.72382467 4.05925139 -3.72382467 4.05925139 -4 6 C-5.98 6.33 -7.96 6.66 -10 7 C-10 8.65 -10 10.3 -10 12 C-11.175625 12.0928125 -11.175625 12.0928125 -12.375 12.1875 C-13.24125 12.455625 -14.1075 12.72375 -15 13 C-15.70211894 14.65204456 -16.36971413 16.31923769 -17 18 C-19.125 18.8125 -19.125 18.8125 -21 19 C-21.33 20.32 -21.66 21.64 -22 23 C-23.98 23 -25.96 23 -28 23 C-27.54625 22.566875 -27.0925 22.13375 -26.625 21.6875 C-24.79975666 19.89201658 -24.79975666 19.89201658 -23 17 C-20.375 16.3125 -20.375 16.3125 -18 16 C-17.67 14.35 -17.34 12.7 -17 11 C-15.68 10.67 -14.36 10.34 -13 10 C-12.67 8.35 -12.34 6.7 -12 5 C-10.68 4.67 -9.36 4.34 -8 4 C-7.87625 3.360625 -7.7525 2.72125 -7.625 2.0625 C-7.315625 1.0415625 -7.315625 1.0415625 -7 0 C-4.3333581 -1.33332095 -2.83319697 -0.67102033 0 0 Z " fill="#494949" transform="translate(43,119)"/>

    <path d="M0 0 C0.66 0 1.32 0 2 0 C2.33 1.32 2.66 2.64 3 4 C4.65 4.33 6.3 4.66 8 5 C8 6.98 8 8.96 8 11 C9.98 11 11.96 11 14 11 C14 12.65 14 14.3 14 16 C14.5775 15.7525 15.155 15.505 15.75 15.25 C16.86375 15.12625 16.86375 15.12625 18 15 C20.25 16.8125 20.25 16.8125 22 19 C22 19.66 22 20.32 22 21 C23.32 21.33 24.64 21.66 26 22 C26.33 23.32 26.66 24.64 27 26 C28.32 26.33 29.64 26.66 31 27 C28.36 27 25.72 27 23 27 C23 25.68 23 24.36 23 23 C21.35 22.67 19.7 22.34 18 22 C17.67 20.68 17.34 19.36 17 18 C15.68 17.67 14.36 17.34 13 17 C13 15.35 13 13.7 13 12 C11.5459375 12.0309375 11.5459375 12.0309375 10.0625 12.0625 C7 12 7 12 6 11 C5.95936168 9.33382885 5.957279 7.66611905 6 6 C4.35 6 2.7 6 1 6 C0.67 4.02 0.34 2.04 0 0 Z " fill="#BABABA" transform="translate(295,126)"/>

    <path d="M0 0 C0.33 0 0.66 0 1 0 C1 1.65 1 3.3 1 5 C-0.65 5.33 -2.3 5.66 -4 6 C-4 7.65 -4 9.3 -4 11 C-5.98 11.33 -7.96 11.66 -10 12 C-10 13.65 -10 15.3 -10 17 C-11.65 17.33 -13.3 17.66 -15 18 C-15.33 19.65 -15.66 21.3 -16 23 C-17.65 23 -19.3 23 -21 23 C-21 24.65 -21 26.3 -21 28 C-22.32 27.67 -23.64 27.34 -25 27 C-24.3125 24.5625 -24.3125 24.5625 -23 22 C-20.375 21.1875 -20.375 21.1875 -18 21 C-17.67 19.35 -17.34 17.7 -17 16 C-15.35 16 -13.7 16 -12 16 C-12 14.35 -12 12.7 -12 11 C-11.195625 10.7525 -10.39125 10.505 -9.5625 10.25 C-8.716875 9.8375 -7.87125 9.425 -7 9 C-6.835 8.34 -6.67 7.68 -6.5 7 C-6.335 6.34 -6.17 5.68 -6 5 C-4.34795544 4.29788106 -2.68076231 3.63028587 -1 3 C-0.67 2.01 -0.34 1.02 0 0 Z " fill="#5E5E5E" transform="translate(254,91)"/>

    <path d="M0 0 C0.061875 0.78375 0.12375 1.5675 0.1875 2.375 C0.455625 3.24125 0.72375 4.1075 1 5 C3.47636012 6.37466625 3.47636012 6.37466625 6 7 C6 8.32 6 9.64 6 11 C6.66 11.33 7.32 11.66 8 12 C6.68 12 5.36 12 4 12 C3.67 10.68 3.34 9.36 3 8 C1.68 7.67 0.36 7.34 -1 7 C-1 5.02 -1 3.04 -1 1 C-3.64 1.33 -6.28 1.66 -9 2 C-9.33 3.65 -9.66 5.3 -10 7 C-7.69 7.33 -5.38 7.66 -3 8 C-3 9.32 -3 10.64 -3 12 C-4.98 12.33 -6.96 12.66 -9 13 C-9.33 14.65 -9.66 16.3 -10 18 C-11.32 17.67 -12.64 17.34 -14 17 C-13.01 17 -12.02 17 -11 17 C-10.67 15.35 -10.34 13.7 -10 12 C-8.35 11.67 -6.7 11.34 -5 11 C-5 10.34 -5 9.68 -5 9 C-7.97 8.505 -7.97 8.505 -11 8 C-11.1875 4.625 -11.1875 4.625 -11 1 C-6.8204355 -1.78637633 -4.85331323 -0.79562512 0 0 Z " fill="#3C3C3C" transform="translate(122,33)"/>

    <path d="M0 0 C2.05078125 0.03255208 4.1015625 0.06510417 6.15234375 0.09765625 C6.15234375 2.07765625 6.15234375 4.05765625 6.15234375 6.09765625 C7.80234375 6.42765625 9.45234375 6.75765625 11.15234375 7.09765625 C11.48234375 8.74765625 11.81234375 10.39765625 12.15234375 12.09765625 C11.16234375 11.76765625 10.17234375 11.43765625 9.15234375 11.09765625 C9.15234375 9.77765625 9.15234375 8.45765625 9.15234375 7.09765625 C7.50234375 8.41765625 5.85234375 9.73765625 4.15234375 11.09765625 C4.15234375 9.77765625 4.15234375 8.45765625 4.15234375 7.09765625 C1.84234375 6.76765625 -0.46765625 6.43765625 -2.84765625 6.09765625 C-2.89037725 4.4315372 -2.88829457 2.7638274 -2.84765625 1.09765625 C-1.84765625 0.09765625 -1.84765625 0.09765625 0 0 Z " fill="#F5F5F5" transform="translate(114.84765625,33.90234375)"/>

    <path d="M0 0 C0.33 0 0.66 0 1 0 C1 1.98 1 3.96 1 6 C-0.65 6.33 -2.3 6.66 -4 7 C-4 8.65 -4 10.3 -4 12 C-5.98 12.33 -7.96 12.66 -10 13 C-10.33 14.65 -10.66 16.3 -11 18 C-12.32 18.33 -13.64 18.66 -15 19 C-15.33 20.32 -15.66 21.64 -16 23 C-16.99 22.67 -17.98 22.34 -19 22 C-18.67 20.35 -18.34 18.7 -18 17 C-16.35 16.67 -14.7 16.34 -13 16 C-12.67 14.68 -12.34 13.36 -12 12 C-10.35 11.67 -8.7 11.34 -7 11 C-6.67 9.35 -6.34 7.7 -6 6 C-4.35 5.67 -2.7 5.34 -1 5 C-0.67 3.35 -0.34 1.7 0 0 Z " fill="#636363" transform="translate(60,96)"/>

    <path d="M0 0 C0.66 0 1.32 0 2 0 C2 1.65 2 3.3 2 5 C4.31 5 6.62 5 9 5 C9.268125 5.639375 9.53625 6.27875 9.8125 6.9375 C10.88667752 9.33131686 10.88667752 9.33131686 14 10 C14 12.31 14 14.62 14 17 C15.65 17 17.3 17 19 17 C19 18.65 19 20.3 19 22 C19.99 22.33 20.98 22.66 22 23 C20.68 23 19.36 23 18 23 C18 21.35 18 19.7 18 18 C17.195625 18.020625 16.39125 18.04125 15.5625 18.0625 C13 18 13 18 12 17 C11.95936168 15.33382885 11.957279 13.66611905 12 12 C10.35 12 8.7 12 7 12 C6.67 10.35 6.34 8.7 6 7 C4.35 6.67 2.7 6.34 1 6 C0.67 4.02 0.34 2.04 0 0 Z " fill="#BABABA" transform="translate(146,63)"/>

    <path d="M0 0 C0.61875 0.928125 0.61875 0.928125 1.25 1.875 C2.84135216 4.10047696 2.84135216 4.10047696 5.125 5.0625 C6.053125 5.5265625 6.053125 5.5265625 7 6 C7.33 6.99 7.66 7.98 8 9 C8.825 9.309375 9.65 9.61875 10.5 9.9375 C11.325 10.288125 12.15 10.63875 13 11 C13.625 13 13.625 13 14 15 C14.99 15.66 15.98 16.32 17 17 C15.02 17 13.04 17 11 17 C11 15.35 11 13.7 11 12 C8.03 11.505 8.03 11.505 5 11 C5 9.35 5 7.7 5 6 C3.35 6 1.7 6 0 6 C0 4.02 0 2.04 0 0 Z " fill="#656565" transform="translate(160,74)"/>

    <path d="M0 0 C0.66 0 1.32 0 2 0 C2 1.98 2 3.96 2 6 C0.35 6.33 -1.3 6.66 -3 7 C-3.33 8.65 -3.66 10.3 -4 12 C-8.455 12.495 -8.455 12.495 -13 13 C-13 12.34 -13 11.68 -13 11 C-10.36 10.67 -7.72 10.34 -5 10 C-4.67 8.35 -4.34 6.7 -4 5 C-2.68 4.67 -1.36 4.34 0 4 C0 2.68 0 1.36 0 0 Z " fill="#919191" transform="translate(13,142)"/>

    <path d="M0 0 C0.99 0.33 1.98 0.66 3 1 C3.6875 3.0625 3.6875 3.0625 4 5 C5.32 5.33 6.64 5.66 8 6 C8.33 7.32 8.66 8.64 9 10 C10.32 10.33 11.64 10.66 13 11 C10.36 11 7.72 11 5 11 C5 9.68 5 8.36 5 7 C3.68 7 2.36 7 1 7 C0.67 4.69 0.34 2.38 0 0 Z " fill="#9D9D9D" transform="translate(313,142)"/>

    <path d="M0 0 C1.32 0.33 2.64 0.66 4 1 C3.34 1 2.68 1 2 1 C1.67 2.65 1.34 4.3 1 6 C-0.65 6 -2.3 6 -4 6 C-4 7.65 -4 9.3 -4 11 C-4.61875 11.2475 -5.2375 11.495 -5.875 11.75 C-8.35068687 13.20628639 -8.95125002 14.37812506 -10 17 C-10 15.02 -10 13.04 -10 11 C-8.68 10.67 -7.36 10.34 -6 10 C-5.67 8.35 -5.34 6.7 -5 5 C-3.68 4.67 -2.36 4.34 -1 4 C-0.67 2.68 -0.34 1.36 0 0 Z " fill="#737373" transform="translate(71,85)"/>

    <path d="M0 0 C0.66 0 1.32 0 2 0 C2 1.65 2 3.3 2 5 C3.98 5 5.96 5 8 5 C8.33 6.65 8.66 8.3 9 10 C10.65 10.33 12.3 10.66 14 11 C14 12.98 14 14.96 14 17 C13.34 17 12.68 17 12 17 C12 15.35 12 13.7 12 12 C10.35 12 8.7 12 7 12 C6.7525 11.195625 6.505 10.39125 6.25 9.5625 C5.27761141 6.828919 5.27761141 6.828919 2.875 6.1875 C2.25625 6.125625 1.6375 6.06375 1 6 C0.67 4.02 0.34 2.04 0 0 Z " fill="#B3B3B3" transform="translate(272,103)"/>

    <path d="M0 0 C-0.99 0.66 -1.98 1.32 -3 2 C-3.72382467 4.05925139 -3.72382467 4.05925139 -4 6 C-5.98 6.33 -7.96 6.66 -10 7 C-10 8.65 -10 10.3 -10 12 C-10.33 12 -10.66 12 -11 12 C-11 9.69 -11 7.38 -11 5 C-10.01 4.67 -9.02 4.34 -8 4 C-7.6278958 2.67696283 -7.29369827 1.34262065 -7 0 C-4.3333581 -1.33332095 -2.83319697 -0.67102033 0 0 Z " fill="#727272" transform="translate(43,119)"/>

    <path d="M0 0 C2 3 2 3 2 5 C3.32 5 4.64 5 6 5 C6.2475 5.804375 6.495 6.60875 6.75 7.4375 C7.36875 8.7059375 7.36875 8.7059375 8 10 C8.99 10.2165625 8.99 10.2165625 10 10.4375 C10.66 10.623125 11.32 10.80875 12 11 C13.25 14.0625 13.25 14.0625 14 17 C13.01 17 12.02 17 11 17 C11 15.35 11 13.7 11 12 C9.02 12 7.04 12 5 12 C5 10.02 5 8.04 5 6 C3.35 6 1.7 6 0 6 C0 4.02 0 2.04 0 0 Z " fill="#545454" transform="translate(298,125)"/>

    <path d="M0 0 C0.66 0.66 1.32 1.32 2 2 C4.06874034 2.6425235 4.06874034 2.6425235 6 3 C6.061875 3.598125 6.12375 4.19625 6.1875 4.8125 C7.31977322 7.8609279 9.24532024 8.41605914 12 10 C12.33 10.99 12.66 11.98 13 13 C13.66 13.66 14.32 14.32 15 15 C13.35 15 11.7 15 10 15 C10 13.35 10 11.7 10 10 C8.35 10 6.7 10 5 10 C5 8.02 5 6.04 5 4 C3.35 4 1.7 4 0 4 C0 2.68 0 1.36 0 0 Z " fill="#3B3B3B" transform="translate(138,53)"/>

    <path d="M0 0 C0.66 0.66 1.32 1.32 2 2 C2.66 2.103125 3.32 2.20625 4 2.3125 C4.99 2.6528125 4.99 2.6528125 6 3 C6.68132451 4.66072849 7.34742127 6.327767 8 8 C8.680625 8.33 9.36125 8.66 10.0625 9 C10.701875 9.33 11.34125 9.66 12 10 C12.75 12.625 12.75 12.625 13 15 C12.34 15 11.68 15 11 15 C10.938125 14.071875 10.938125 14.071875 10.875 13.125 C10.58625 12.42375 10.2975 11.7225 10 11 C7.00384054 9.6954344 7.00384054 9.6954344 4 9 C4 7.35 4 5.7 4 4 C2.35 3.67 0.7 3.34 -1 3 C-0.67 2.01 -0.34 1.02 0 0 Z " fill="#666666" transform="translate(195,110)"/>

    <path d="M0 0 C0.33 0 0.66 0 1 0 C1 1.65 1 3.3 1 5 C-0.65 5.33 -2.3 5.66 -4 6 C-4 7.65 -4 9.3 -4 11 C-6.31 11 -8.62 11 -11 11 C-10.360625 10.7525 -9.72125 10.505 -9.0625 10.25 C-8.0415625 9.63125 -8.0415625 9.63125 -7 9 C-6.855625 8.34 -6.71125 7.68 -6.5625 7 C-6.376875 6.34 -6.19125 5.68 -6 5 C-4.34795544 4.29788106 -2.68076231 3.63028587 -1 3 C-0.67 2.01 -0.34 1.02 0 0 Z " fill="#545454" transform="translate(254,91)"/>

    <path d="M0 0 C0.33 0 0.66 0 1 0 C1 1.98 1 3.96 1 6 C2.65 6.33 4.3 6.66 6 7 C6.33 8.65 6.66 10.3 7 12 C6.01 11.67 5.02 11.34 4 11 C4 9.68 4 8.36 4 7 C2.35 8.32 0.7 9.64 -1 11 C-0.67 7.37 -0.34 3.74 0 0 Z " fill="#B6B6B6" transform="translate(120,34)"/>

    <path d="M0 0 C0.61875 0.928125 0.61875 0.928125 1.25 1.875 C2.84135216 4.10047696 2.84135216 4.10047696 5.125 5.0625 C6.053125 5.5265625 6.053125 5.5265625 7 6 C7.33 6.99 7.66 7.98 8 9 C8.66 9.66 9.32 10.32 10 11 C8.35 11 6.7 11 5 11 C5 9.35 5 7.7 5 6 C3.35 6 1.7 6 0 6 C0 4.02 0 2.04 0 0 Z " fill="#646464" transform="translate(183,97)"/>

    <path d="M0 0 C0.33 0 0.66 0 1 0 C1.04254356 1.99954746 1.04080783 4.00041636 1 6 C0 7 0 7 -2.5625 7.0625 C-3.7690625 7.0315625 -3.7690625 7.0315625 -5 7 C-5 8.32 -5 9.64 -5 11 C-5.66 11 -6.32 11 -7 11 C-6.67 9.35 -6.34 7.7 -6 6 C-4.35 5.67 -2.7 5.34 -1 5 C-0.67 3.35 -0.34 1.7 0 0 Z " fill="#444444" transform="translate(60,96)"/>

    <path d="M0 0 C1.134375 0.020625 2.26875 0.04125 3.4375 0.0625 C3.7675 2.3725 4.0975 4.6825 4.4375 7.0625 C3.7775 7.0625 3.1175 7.0625 2.4375 7.0625 C2.4375 5.4125 2.4375 3.7625 2.4375 2.0625 C0.7875 2.0625 -0.8625 2.0625 -2.5625 2.0625 C-2.5625 3.3825 -2.5625 4.7025 -2.5625 6.0625 C-3.2225 6.0625 -3.8825 6.0625 -4.5625 6.0625 C-4.605221 4.39638095 -4.60313832 2.72867115 -4.5625 1.0625 C-3.5625 0.0625 -3.5625 0.0625 0 0 Z " fill="#8F8F8F" transform="translate(259.5625,89.9375)"/>

    <path d="M0 0 C0.66 0 1.32 0 2 0 C2.061875 0.78375 2.12375 1.5675 2.1875 2.375 C2.455625 3.24125 2.72375 4.1075 3 5 C5.47636012 6.37466625 5.47636012 6.37466625 8 7 C8 8.32 8 9.64 8 11 C8.66 11.33 9.32 11.66 10 12 C8.68 12 7.36 12 6 12 C5.67 10.68 5.34 9.36 5 8 C3.68 7.67 2.36 7.34 1 7 C0.67 4.69 0.34 2.38 0 0 Z " fill="#202020" transform="translate(120,33)"/>

    <path d="M0 0 C0.66 0 1.32 0 2 0 C2 1.65 2 3.3 2 5 C4.31 5 6.62 5 9 5 C9.28875 5.61875 9.5775 6.2375 9.875 6.875 C10.93720042 9.13325765 10.93720042 9.13325765 13 11 C11.35 10.67 9.7 10.34 8 10 C8 8.68 8 7.36 8 6 C5.69 6 3.38 6 1 6 C0.67 4.02 0.34 2.04 0 0 Z " fill="#7F7F7F" transform="translate(146,63)"/>

    <path d="M0 0 C3.125 -0.1875 3.125 -0.1875 6 0 C5.360625 0.2475 4.72125 0.495 4.0625 0.75 C1.81258459 1.81562433 1.81258459 1.81562433 1.25 4.125 C1.1675 4.74375 1.085 5.3625 1 6 C-0.98 6 -2.96 6 -5 6 C-4.54625 5.566875 -4.0925 5.13375 -3.625 4.6875 C-1.79975666 2.89201658 -1.79975666 2.89201658 0 0 Z " fill="#767676" transform="translate(20,136)"/>

    <path d="M0 0 C0.33 0 0.66 0 1 0 C1 1.98 1 3.96 1 6 C-1.97 6 -4.94 6 -8 6 C-8.33 4.35 -8.66 2.7 -9 1 C-8.01 2.485 -8.01 2.485 -7 4 C-4.41619823 4.25030977 -4.41619823 4.25030977 -2 4 C-1.34 2.68 -0.68 1.36 0 0 Z " fill="#595959" transform="translate(220,125)"/>

    <path d="M0 0 C0.99 0.33 1.98 0.66 3 1 C3.3721042 2.32303717 3.70630173 3.65737935 4 5 C4.66 5.33 5.32 5.66 6 6 C4.35 6 2.7 6 1 6 C0.67 4.02 0.34 2.04 0 0 Z " fill="#848484" transform="translate(313,142)"/>
</svg>