<?xml version="1.0" encoding="UTF-8"?>
  <svg xmlns="http://www.w3.org/2000/svg" version="1.1" width="30" height="30" viewBox="0 0 516 585">

    <path d="M0 0 C0.72880371 0.21430664 1.45760742 0.42861328 2.20849609 0.64941406 C41.11982306 12.46469876 73.10909053 40.58971471 92.25 76.1875 C103.48965596 97.92923736 111.05472111 122.82197833 111.203125 147.42578125 C111.21018463 148.20673157 111.21724426 148.98768188 111.22451782 149.79229736 C111.45146647 182.25925614 111.45146647 182.25925614 108 196 C107.80132324 196.82097168 107.60264648 197.64194336 107.39794922 198.48779297 C97.34498038 239.09877495 74.59250017 274.04619911 40 298 C42.72982479 299.8198832 45.01706495 300.87154013 48.05859375 302.03125 C49.07445557 302.42441406 50.09031738 302.81757813 51.13696289 303.22265625 C52.77072876 303.85494141 52.77072876 303.85494141 54.4375 304.5 C82.83028574 315.70117951 108.07690045 330.86906027 131 351 C131.86238281 351.75023437 132.72476562 352.50046875 133.61328125 353.2734375 C143.97775682 362.43120379 153.49482296 372.08062915 162 383 C162.99583526 384.2436966 163.99194703 385.48717183 164.98828125 386.73046875 C195.168551 424.81433123 216.05192408 473.30483316 220 522 C149.51171151 560.85601594 64.37813261 579.96889475 -15.94921875 580.203125 C-17.44430573 580.21014508 -18.93939239 580.21723191 -20.43447876 580.22438049 C-25.18549021 580.24378372 -29.93645292 580.24881422 -34.6875 580.25 C-35.49615383 580.25044186 -36.30480766 580.25088371 -37.13796616 580.25133896 C-60.88507857 580.25814802 -84.41373773 580.05425112 -108 577 C-109.44670186 576.82067904 -110.89348204 576.64198902 -112.34033203 576.46386719 C-165.23416415 569.87782833 -217.40039715 557.18272727 -266 535 C-266.99177246 534.54818359 -267.98354492 534.09636719 -269.00537109 533.63085938 C-275.05468608 530.85490587 -281.08604749 528.05497591 -287 525 C-287.77827148 524.63100586 -288.55654297 524.26201172 -289.35839844 523.88183594 C-291.52221462 522.74443322 -293.25390713 521.71107178 -295 520 C-295.59831861 516.74732247 -295.55251749 515.15660111 -295 512 C-294.86255371 511.06687988 -294.72510742 510.13375977 -294.58349609 509.17236328 C-286.53257648 459.57777217 -264.65073534 410.68901389 -230 374 C-228.91174193 372.73338134 -227.82831815 371.46259154 -226.75 370.1875 C-218.32641198 360.5549711 -209.09986548 351.85073577 -199 344 C-198.01773438 343.21238281 -197.03546875 342.42476563 -196.0234375 341.61328125 C-171.40656058 322.02128462 -143.3664219 308.79859535 -114 298 C-114.79921875 297.40574219 -115.5984375 296.81148438 -116.421875 296.19921875 C-154.54360517 267.55672156 -177.74135012 228.56907591 -184.54418945 181.21166992 C-185.05326556 176.99372534 -185.1775183 172.81953954 -185.203125 168.57421875 C-185.21018463 167.79326843 -185.21724426 167.01231812 -185.22451782 166.20770264 C-185.45146647 133.74074386 -185.45146647 133.74074386 -182 120 C-181.80132324 119.17902832 -181.60264648 118.35805664 -181.39794922 117.51220703 C-170.85285102 74.91316987 -146.0930177 37.55181008 -108.14453125 14.6484375 C-76.47312458 -4.00392356 -35.62559281 -10.6318485 0 0 Z " fill="#FFFFFF" transform="translate(296,5)"/>
</svg>